<svg width="24" height="24" viewBox="0 0 24 24" fill="none" xmlns="http://www.w3.org/2000/svg">
<path fill-rule="evenodd" clip-rule="evenodd" d="M11.5 5C11.5 6.65685 10.1569 8 8.5 8C6.84315 8 5.5 6.65685 5.5 5C5.5 3.34315 6.84315 2 8.5 2C10.1569 2 11.5 3.34315 11.5 5ZM13.5 5C13.5 7.76142 11.2614 10 8.5 10C5.73858 10 3.5 7.76142 3.5 5C3.5 2.23858 5.73858 0 8.5 0C11.2614 0 13.5 2.23858 13.5 5ZM15.4443 13.9265C14.1553 12.0851 11.8766 11 8.50007 11C5.1413 11 2.78911 12.0692 1.34421 13.8753C0.828673 14.5197 0.46974 15.21 0.238891 15.9025C0.0967076 16.3291 0.0276521 16.6744 0.0050376 16.9005C-0.0499168 17.45 0.351027 17.9401 0.900571 17.995C1.45011 18.05 1.94016 17.649 1.99511 17.0995L1.99919 17.0665L2.01506 16.9762L2.0423 16.8558L2.08226 16.7078C2.09785 16.6542 2.11577 16.5964 2.13626 16.535C2.29604 16.0556 2.54648 15.574 2.90594 15.1247C3.96104 13.8058 5.73385 13 8.50007 13C11.2486 13 12.9073 13.7899 13.8058 15.0735C14.1107 15.509 14.3076 15.9778 14.4169 16.446C14.4239 16.4762 14.4304 16.5054 14.4364 16.5338L14.4666 16.6917C14.4707 16.7159 14.4744 16.7391 14.4776 16.7611L14.4926 16.8794L14.4993 16.9678L14.5028 17.0746C14.541 17.5921 14.9729 18 15.5001 18C16.0524 18 16.5001 17.5523 16.5001 17C16.5001 16.7715 16.4652 16.423 16.3645 15.9915C16.2003 15.2878 15.9051 14.5848 15.4443 13.9265Z" fill="#15AFC5"/>
<path d="M24 16.5C24 20.6421 20.6421 24 16.5 24C12.3579 24 9 20.6421 9 16.5C9 12.3579 12.3579 9 16.5 9C20.6421 9 24 12.3579 24 16.5Z" fill="white"/>
<path fill-rule="evenodd" clip-rule="evenodd" d="M22 16.5C22 19.5376 19.5376 22 16.5 22C13.4624 22 11 19.5376 11 16.5C11 13.4624 13.4624 11 16.5 11C19.5376 11 22 13.4624 22 16.5ZM24 16.5C24 20.6421 20.6421 24 16.5 24C12.3579 24 9 20.6421 9 16.5C9 12.3579 12.3579 9 16.5 9C20.6421 9 24 12.3579 24 16.5ZM19.9597 16.2354L19.9565 17.0469C20.22 17.0914 20.4342 17.6966 20.4916 17.9709L19.637 19.4362C19.3699 19.523 18.737 19.6353 18.5687 19.4282L17.8644 19.831C17.9574 20.0808 17.5399 20.569 17.3303 20.7542L15.6377 20.7451C15.4294 20.5581 15.0163 20.0667 15.1111 19.8175L14.4104 19.4094C14.2386 19.6158 13.6092 19.4984 13.3422 19.4094L12.5 17.9369C12.5578 17.6631 12.7768 17.0614 13.0403 17.0169L13.0439 16.2059C12.7768 16.1614 12.5654 15.5562 12.5097 15.2819L13.36 13.8159C13.6271 13.7294 14.26 13.6173 14.4283 13.8238L15.1326 13.4232C15.0396 13.173 15.4571 12.6852 15.6667 12.5L17.3631 12.5072C17.571 12.6941 17.9845 13.1859 17.8893 13.4347L18.59 13.8433C18.7612 13.6368 19.3912 13.7543 19.6582 13.8433L20.5 15.3157C20.4422 15.5896 20.2232 16.193 19.9597 16.2354ZM16.7716 17.6548C17.0442 17.5828 17.2773 17.4058 17.4194 17.1621C17.5614 16.9185 17.601 16.6282 17.529 16.3553C17.4573 16.0825 17.2799 15.8494 17.036 15.7076C16.7924 15.5655 16.5023 15.5261 16.2296 15.5981C15.957 15.67 15.7241 15.8473 15.5821 16.0909C15.4402 16.3346 15.4006 16.6246 15.4726 16.8973C15.5443 17.1699 15.7216 17.403 15.9652 17.5451C16.2089 17.6869 16.4989 17.7265 16.7716 17.6548Z" fill="#15AFC5"/>
</svg>
