<?xml version="1.0"?><svg xmlns="http://www.w3.org/2000/svg" viewBox="0 0 100 100"><g><path d="M86.767 70.312H18.823a3.233 3.233 0 0 1-3.233-3.233V23.251a3.233 3.233 0 0 1 3.233-3.233h67.944A3.233 3.233 0 0 1 90 23.251v43.828a3.233 3.233 0 0 1-3.233 3.233z" fill="#e0e0e0"/><path fill="#323232" d="M15.59 24.647H90v12.536H15.59z"/><path fill="#fff" d="M20.789 41.792h47.95v6.041h-47.95z"/><path fill="#fff" d="M84.867 47.834H74.446v-6.04h10.42z"/><path fill="#fff" d="M52.612 62.859h32.256v3.021H52.612z"/></g><g><circle cx="23.909" cy="66.074" r="13.909" fill="#acbd81"/><path fill="none" stroke="#fff" stroke-width="3" stroke-miterlimit="10" d="M16.25 66.379l5.181 5.181 10.482-10.482"/></g><metadata xmlns:d="https://loading.io/stock/">
<d:name>credit card</d:name>
<d:tags>credit card,debit card,payment,visa,mastercard,jcb</d:tags>
<d:license>by</d:license>
<d:slug>kifr78</d:slug>
</metadata></svg>