<svg width="21" height="20" viewBox="0 0 21 20" fill="none" xmlns="http://www.w3.org/2000/svg">
<path fill-rule="evenodd" clip-rule="evenodd" d="M5.5 1.00427C5.5 0.449625 5.94911 0 6.4954 0H14.5046C15.0543 0 15.5 0.450975 15.5 1.00427V4H19.5014C20.0529 4 20.5 4.44911 20.5 4.9954V13.0046C20.5 13.5534 20.053 13.9984 19.5 14V19.003C19.5 19.5536 19.0551 20 18.5001 20H2.49985C1.94765 20 1.5 19.5527 1.5 19.003V14C0.947624 14 0.5 13.5509 0.5 13.0046V4.9954C0.5 4.44565 0.94577 4 1.49865 4H5.5V1.00427ZM7.5 4H13.5V2H7.5V4ZM3.5 18H17.5V14H13.5V14.9957C13.5 15.5504 13.049 16 12.4957 16H8.50426C7.94962 16 7.5 15.549 7.5 14.9957V14H3.5V18ZM13.5 12H18.5V6H2.5V12H7.5V11.0043C7.5 10.4496 7.95097 10 8.50426 10H12.4957C13.0504 10 13.5 10.451 13.5 11.0043V12ZM9.5 12V14H11.5V12H9.5Z" fill="#15AFC5"/>
</svg>
