<svg width="21" height="20" viewBox="0 0 21 20" fill="none" xmlns="http://www.w3.org/2000/svg">
<path fill-rule="evenodd" clip-rule="evenodd" d="M2.5 14.9905V16.3468C2.84998 16.5603 5.64618 17.997 10.5 17.997C15.3538 17.997 18.1504 16.5619 18.5 16.3484V14.9905C18.5 13.2744 14.693 11.9397 14.4216 11.8376C13.57 13.3659 12.3111 14.5 10.5 14.5C8.68988 14.5 7.43131 13.3671 6.57978 11.84C6.31115 11.9409 2.5 13.2709 2.5 14.9905ZM5 5.17865C5 2.31856 7.46243 0 10.5 0C13.5376 0 16 2.31856 16 5.17865C16 6.39233 15.788 8.2545 15.2136 9.99622C17.2165 10.7614 20.5 12.0007 20.5 14.9905V16.9976C20.5 18.1027 16.1849 20 10.5 20C4.81506 20 0.5 18.0989 0.5 16.9976V14.9905C0.5 11.9904 3.78531 10.7625 5.78723 9.99879C5.2122 8.25633 5 6.39293 5 5.17865ZM10.5 12.5C12.4696 12.5 14 8.88263 14 5.17865C14 3.45095 12.459 2 10.5 2C8.54098 2 7 3.45095 7 5.17865C7 8.88263 8.53042 12.5 10.5 12.5Z" fill="#15AFC5"/>
</svg>
