<svg width="16" height="16" viewBox="0 0 16 16" fill="none" xmlns="http://www.w3.org/2000/svg">
<path fill-rule="evenodd" clip-rule="evenodd" d="M14.2613 13.319C14.5205 13.5782 14.5214 13.9976 14.2592 14.2597C13.9989 14.5201 13.5781 14.5214 13.3185 14.2618L9.69925 10.6425C8.85805 11.2852 7.80686 11.667 6.6665 11.667C3.90508 11.667 1.6665 9.42842 1.6665 6.66699C1.6665 3.90557 3.90508 1.66699 6.6665 1.66699C9.42793 1.66699 11.6665 3.90557 11.6665 6.66699C11.6665 7.80735 11.2847 8.85854 10.6421 9.69974L14.2613 13.319ZM6.6665 10.3337C8.69155 10.3337 10.3332 8.69204 10.3332 6.66699C10.3332 4.64195 8.69155 3.00033 6.6665 3.00033C4.64146 3.00033 2.99984 4.64195 2.99984 6.66699C2.99984 8.69204 4.64146 10.3337 6.6665 10.3337Z" fill="#9BA1A3"/>
</svg>
