<svg xmlns="http://www.w3.org/2000/svg" width="5" height="8" viewBox="0 0 5 8">
    <g fill="none" fill-rule="evenodd">
        <g fill="#667074">
            <g>
                <path d="M71.596 14.167c.223-.223.585-.223.808 0 .206.206.222.53.048.755l-.048.053L69.38 18l3.024 3.025c.206.206.222.53.048.754l-.048.054c-.206.206-.53.221-.754.047l-.054-.047-3.429-3.429c-.206-.206-.221-.53-.047-.754l.047-.054 3.429-3.429z" transform="translate(-286 -119) translate(218 105) matrix(-1 0 0 1 140.571 0)"/>
            </g>
        </g>
    </g>
</svg>
