<svg width="16" height="16" viewBox="0 0 16 16" fill="none" xmlns="http://www.w3.org/2000/svg">
<path fill-rule="evenodd" clip-rule="evenodd" d="M9.00603 10.6673C9.01119 10.5669 9.02078 10.4281 9.03715 10.3382C9.0921 10.0365 9.13039 9.87173 9.21394 9.6558C9.35802 9.28347 9.5868 8.96279 9.92791 8.72038C10.8039 8.09784 11.3334 7.09482 11.3334 6.00065C11.3334 4.1597 9.84099 2.66732 8.00004 2.66732C6.15909 2.66732 4.66671 4.1597 4.66671 6.00065C4.66671 7.14654 5.16573 8.10503 6.04632 8.70582C6.39444 8.94332 6.62738 9.26362 6.77356 9.63688C6.85734 9.85079 6.89614 10.0157 6.95093 10.3133C6.96954 10.4144 6.98384 10.5627 6.99289 10.6673H7.33337V7.3375L6.26794 6.53258C5.97416 6.31064 5.91593 5.89256 6.13787 5.59879C6.35981 5.30501 6.77789 5.24678 7.07166 5.46872L8.00338 6.17309L8.9368 5.46872C9.23058 5.24678 9.64865 5.30501 9.87059 5.59879C10.0925 5.89256 10.0343 6.31064 9.74053 6.53258L8.66671 7.34383V10.6673H9.00603ZM6.33533 14.0007C5.96606 14.0007 5.66671 13.7048 5.66671 13.3341V10.7003C5.59585 10.3321 5.56034 9.98834 5.29488 9.80723C4.06346 8.96709 3.33337 7.60384 3.33337 6.00065C3.33337 3.42332 5.42271 1.33398 8.00004 1.33398C10.5774 1.33398 12.6667 3.42332 12.6667 6.00065C12.6667 7.57176 11.8903 8.96153 10.7003 9.80723C10.4414 9.99121 10.3971 10.3171 10.3324 10.6673L10.3334 13.3341C10.3334 13.7022 10.0344 14.0007 9.66475 14.0007H8.94314C8.80586 14.389 8.43545 14.6673 8.00004 14.6673C7.56463 14.6673 7.19422 14.389 7.05694 14.0007H6.33533ZM7.00004 12.0007V12.6673H9.00004V12.0007H7.00004Z" fill="#363636"/>
</svg>
