<svg xmlns="http://www.w3.org/2000/svg" width="36" height="36" viewBox="0 0 36 36">
    <defs>
        <filter id="8we35pcoka">
            <feColorMatrix in="SourceGraphic" values="0 0 0 0 0.400000 0 0 0 0 0.439200 0 0 0 0 0.454900 0 0 0 1.000000 0"/>
        </filter>
    </defs>
    <g fill="none" fill-rule="evenodd">
        <g>
            <g>
                <g filter="url(#8we35pcoka)" transform="translate(-1118 -183) translate(1113 159) translate(0 24)">
                    <g>
                        <path d="M0 0H36V36H0z" transform="translate(5)"/>
                        <path fill="#000" fill-rule="nonzero" d="M24.75 18.75c.414 0 .75.336.75.75v5.25c0 .414-.336.75-.75.75H19.5c-.414 0-.75-.336-.75-.75V19.5c0-.414.336-.75.75-.75zm-8.25 0c.414 0 .75.336.75.75v5.25c0 .414-.336.75-.75.75h-5.25c-.414 0-.75-.336-.75-.75V19.5c0-.414.336-.75.75-.75zm7.5 1.5h-3.75V24H24v-3.75zm-8.25 0H12V24h3.75v-3.75zm.75-9.75c.414 0 .75.336.75.75v5.25c0 .414-.336.75-.75.75h-5.25c-.414 0-.75-.336-.75-.75v-5.25c0-.414.336-.75.75-.75zm8.25 0c.414 0 .75.336.75.75v5.25c0 .414-.336.75-.75.75H19.5c-.414 0-.75-.336-.75-.75v-5.25c0-.414.336-.75.75-.75zm-9 1.5H12v3.75h3.75V12zM24 12h-3.75v3.75H24V12z" transform="translate(5)"/>
                    </g>
                </g>
            </g>
        </g>
    </g>
</svg>
