<svg width="16px" height="16px" viewBox="0 0 48 48" fill="none" xmlns="http://www.w3.org/2000/svg">
  <path fill-rule="evenodd" clip-rule="evenodd" d="M23 10C23 13.3137 20.3137 16 17 16C13.6863 16 11 13.3137 11 10C11 6.68629 13.6863 4 17 4C20.3137 4 23 6.68629 23 10ZM27 10C27 15.5228 22.5228 20 17 20C11.4772 20 7 15.5228 7 10C7 4.47715 11.4772 0 17 0C22.5228 0 27 4.47715 27 10ZM30.8886 27.8531C28.3106 24.1702 23.7532 22 17.0001 22C10.2826 22 5.57822 24.1384 2.68841 27.7506C1.65735 29.0394 0.939479 30.42 0.477783 31.805C0.193415 32.6581 0.0553041 33.3487 0.0100752 33.801C-0.0998336 34.9001 0.702055 35.8802 1.80114 35.9901C2.90023 36.1 3.88032 35.2981 3.99022 34.199L3.99838 34.133L4.03011 33.9525L4.08461 33.7116L4.16452 33.4156C4.19569 33.3084 4.23154 33.1929 4.27252 33.07C4.59207 32.1113 5.09295 31.1481 5.81189 30.2494C7.92208 27.6116 11.4677 26 17.0001 26C22.4971 26 25.8147 27.5798 27.6117 30.1469C28.2214 31.018 28.6152 31.9557 28.8337 32.892C28.8478 32.9523 28.8608 33.0109 28.8728 33.0675L28.9332 33.3833C28.9414 33.4318 28.9488 33.4782 28.9553 33.5223L28.9852 33.7588L28.9986 33.9356L29.0056 34.1493C29.082 35.1841 29.9458 36 31.0001 36C32.1047 36 33.0001 35.1046 33.0001 34C33.0001 33.543 32.9304 32.846 32.7291 31.983C32.4007 30.5756 31.8101 29.1695 30.8886 27.8531Z" fill="#667074"/>
  <path d="M48 33C48 41.2843 41.2843 48 33 48C24.7157 48 18 41.2843 18 33C18 24.7157 24.7157 18 33 18C41.2843 18 48 24.7157 48 33Z" fill="white"/>
  <path fill-rule="evenodd" clip-rule="evenodd" d="M33 44C39.0751 44 44 39.0751 44 33C44 26.9249 39.0751 22 33 22C26.9249 22 22 26.9249 22 33C22 39.0751 26.9249 44 33 44ZM33 48C41.2843 48 48 41.2843 48 33C48 24.7157 41.2843 18 33 18C24.7157 18 18 24.7157 18 33C18 41.2843 24.7157 48 33 48Z" fill="#667074"/>
  <path fill-rule="evenodd" clip-rule="evenodd" d="M33 30.1708L35.1172 28.0537C35.9005 27.2703 37.1632 27.263 37.9497 28.0495C38.7308 28.8306 38.7296 30.098 37.9456 30.8821L35.8284 32.9993L37.9456 35.1164C38.7289 35.8998 38.7362 37.1625 37.9497 37.949C37.1687 38.7301 35.9012 38.7289 35.1172 37.9449L33 35.8277L30.8828 37.9449C30.0995 38.7282 28.8367 38.7355 28.0502 37.949C27.2692 37.168 27.2703 35.9005 28.0544 35.1164L30.1716 32.9993L28.0544 30.8821C27.2711 30.0987 27.2638 28.836 28.0502 28.0495C28.8313 27.2685 30.0988 27.2696 30.8828 28.0537L33 30.1708Z" fill="#667074"/>
</svg>
