<svg width="15" height="15" viewBox="0 0 16 16" fill="none" xmlns="http://www.w3.org/2000/svg">
<path fill-rule="evenodd" clip-rule="evenodd" d="M14.1873 2.75845C14.7074 3.27861 14.7074 4.12195 14.1853 4.64409L7.58662 11.2427L5.10489 11.8655C4.39014 12.0448 3.95669 11.6085 4.13546 10.8961L4.75819 8.41432L11.3569 1.81566C11.8781 1.29441 12.7241 1.29529 13.2425 1.81367L14.1873 2.75845ZM6.89898 10.0448L5.64937 10.3516L5.96226 9.09651L6.40847 8.65038L7.35092 9.59283L6.89898 10.0448ZM10.8855 4.1707L11.8283 5.11549L8.29373 8.65002L7.35132 7.70761L10.8855 4.1707Z" fill="#667074"/>
<path d="M10.0521 10.3131L9.99323 10.2508C9.99323 10.2508 10.5385 9.69858 10.9476 9.28819L11.2264 9.62049C11.2263 9.62319 11.2262 9.62464 11.2262 9.62464C11.2262 9.62464 12.1897 10.7719 12.2395 10.8423C12.5107 11.2023 12.5434 11.7398 12.3184 12.1295L11.6978 13.2044C11.4717 13.5959 10.9883 13.8375 10.5576 13.7813C10.5541 13.7809 8.97099 13.513 8.97099 13.513L8.4837 13.8003C8.4837 13.8003 7.96662 15.2101 7.93049 15.2884C7.75429 15.7032 7.30526 16.0003 6.85517 16.0003H5.61398C5.16191 16.0003 4.71095 15.7024 4.54613 15.3052C4.50252 15.21 3.98401 13.7951 3.98401 13.7951L3.48722 13.5118C3.48722 13.5118 2.01149 13.7719 1.92558 13.7797C1.47821 13.8346 0.996415 13.5942 0.77137 13.2044L0.150773 12.1295C-0.0752621 11.738 -0.0427633 11.1985 0.218819 10.8572C0.279531 10.7718 1.24165 9.61964 1.24165 9.61964C1.24165 9.61964 1.23457 9.53569 1.23457 9.33366C1.23457 9.23823 1.2426 9.04834 1.2426 9.04834C1.2426 9.04834 0.279531 7.89555 0.229782 7.82509C-0.0414565 7.46506 -0.0742933 6.92761 0.150773 6.53778L0.77137 5.46287C0.997385 5.0714 1.48077 4.82977 1.90711 4.88559C2.01149 4.89544 3.50182 5.15504 3.50182 5.15504L3.99115 4.86415C3.99115 4.86415 4.50252 3.45733 4.53864 3.37907C4.71481 2.96416 5.16384 2.66699 5.61398 2.66699H6.85517C7.3072 2.66699 7.75816 2.9648 7.92299 3.36193C7.93552 3.3893 7.98713 3.52494 8.05432 3.70439L7.02244 4.73627C6.89711 4.38826 6.77765 4.07181 6.75621 4.02142C6.73341 3.96784 5.73577 3.96786 5.71298 4.02145C5.67367 4.11389 5.30462 5.10141 5.17442 5.53696L5.08487 5.83654L4.79727 5.95923C4.52549 6.07516 4.26881 6.22378 4.03264 6.40146L3.78243 6.58971L3.47778 6.51735C3.03519 6.41222 1.99472 6.23797 1.89494 6.2258C1.8371 6.21875 1.33827 7.08276 1.37331 7.12932C1.43374 7.20963 2.10479 8.02339 2.41704 8.35404L2.63149 8.58112L2.59426 8.89122C2.57675 9.03714 2.56791 9.18477 2.56791 9.33366C2.56791 9.48254 2.57675 9.63018 2.59426 9.77609L2.63149 10.0862L2.41704 10.3133C2.10479 10.6439 1.43374 11.4577 1.37331 11.538C1.33827 11.5846 1.8371 12.4486 1.89494 12.4415C1.99472 12.4293 3.03519 12.2551 3.47778 12.15L3.78243 12.0776L4.03264 12.2659C4.26881 12.4435 4.52549 12.5922 4.79727 12.7081L5.08487 12.8308L5.17442 13.1304C5.30462 13.5659 5.67367 14.5534 5.71298 14.6459C5.73577 14.6995 6.73341 14.6995 6.75621 14.6459C6.79553 14.5535 7.16465 13.5659 7.29486 13.1303L7.38441 12.8307L7.672 12.708C7.94377 12.5921 8.20044 12.4435 8.43661 12.2658L8.68683 12.0775L8.99149 12.1499C9.43403 12.255 10.4744 12.4293 10.5742 12.4415C10.6084 12.4456 11.1309 11.5845 11.0959 11.538C11.0355 11.4577 10.3644 10.6438 10.0521 10.3131Z" fill="#667074"/>
</svg>
