<svg width="15" height="15" viewBox="0 0 15 15" fill="none" xmlns="http://www.w3.org/2000/svg">
<path fill-rule="evenodd" clip-rule="evenodd" d="M8.66667 0.666992C9.03486 0.666992 9.33333 0.962561 9.33333 1.33303L10.6661 1.33366C11.403 1.33366 12 1.92896 12 2.66689V13.3338C12 14.0707 11.4045 14.667 10.6661 14.667H1.33391C0.59702 14.667 0 14.0717 0 13.3338V2.66689C0 1.92997 0.595491 1.33366 1.33391 1.33366H2.66667C2.66667 0.965186 2.96258 0.666992 3.33333 0.666992C3.70152 0.666992 4 0.962561 4 1.33303L5.33333 1.33366C5.33333 0.965186 5.62924 0.666992 6 0.666992C6.36819 0.666992 6.66667 0.962561 6.66667 1.33303L8 1.33366C8 0.965186 8.29591 0.666992 8.66667 0.666992ZM6.66667 2.66663C6.66667 3.03547 6.37076 3.33366 6 3.33366C5.63181 3.33366 5.33333 3.03809 5.33333 2.66762C4.87399 2.66652 4.42345 2.66651 4 2.6665C4 3.03547 3.70409 3.33366 3.33333 3.33366C2.96514 3.33366 2.66667 3.03809 2.66667 2.66762C1.86156 2.66655 1.33333 2.66689 1.33333 2.66689L1.33391 13.3337L10.6667 13.3338L10.6661 2.66699C10.6661 2.66699 10.1381 2.66693 9.33333 2.66685C9.33333 3.03547 9.03742 3.33366 8.66667 3.33366C8.29848 3.33366 8 3.03809 8 2.66762C7.57656 2.6667 7.12602 2.66666 6.66667 2.66663ZM6 6.33366C6 5.96547 6.30065 5.66699 6.66951 5.66699H9.33049C9.70025 5.66699 10 5.9629 10 6.33366C10 6.70185 9.69935 7.00033 9.33049 7.00033H6.66951C6.29975 7.00033 6 6.70442 6 6.33366ZM6 10.0003C6 9.63214 6.30065 9.33366 6.66951 9.33366H9.33049C9.70025 9.33366 10 9.62957 10 10.0003C10 10.3685 9.69935 10.667 9.33049 10.667H6.66951C6.29975 10.667 6 10.3711 6 10.0003ZM2.86193 6.80506L2.19526 6.1384C1.93491 5.87805 1.93491 5.45594 2.19526 5.19559C2.45561 4.93524 2.87772 4.93524 3.13807 5.19559L3.33348 5.39099L4.19526 4.52892C4.45561 4.26857 4.87772 4.26857 5.13807 4.52892C5.39842 4.78927 5.39842 5.21138 5.13807 5.47173L3.80474 6.80506C3.54439 7.06541 3.12228 7.06541 2.86193 6.80506ZM2.86193 10.4717L2.19526 9.80506C1.93491 9.54471 1.93491 9.1226 2.19526 8.86225C2.45561 8.60191 2.87772 8.60191 3.13807 8.86225L3.33462 9.05881L4.19526 8.19559C4.45561 7.93524 4.87772 7.93524 5.13807 8.19559C5.39842 8.45594 5.39842 8.87805 5.13807 9.1384L3.80474 10.4717C3.54439 10.7321 3.12228 10.7321 2.86193 10.4717Z" fill="#667074"/>
</svg>
