<svg width="15" height="15" viewBox="0 0 14 14" fill="none" xmlns="http://www.w3.org/2000/svg">
<path fill-rule="evenodd" clip-rule="evenodd" d="M13.1853 3.64409C13.7074 3.12195 13.7074 2.27861 13.1873 1.75845L12.2425 0.813674C11.7241 0.295293 10.8781 0.294408 10.3569 0.815661L3.7582 7.41432L3.13547 9.89605C2.9567 10.6085 3.39015 11.0448 4.1049 10.8655L6.58663 10.2427L13.1853 3.64409ZM1.66741 12.3332L11.0002 12.3311V7.66698C11.0002 7.29879 11.2986 7.00031 11.6668 7.00031C12.035 7.00031 12.3335 7.29879 12.3335 7.66698V12.3311C12.3335 13.0687 11.7385 13.6665 10.9996 13.6665H1.66741C0.930266 13.6665 0.333496 13.0712 0.333496 12.3326V3.00041C0.333496 2.2628 0.931217 1.66649 1.67011 1.66649H6.34342C6.71161 1.66649 7.01009 1.96497 7.01009 2.33316C7.01009 2.70135 6.71161 2.99983 6.34342 2.99983L1.66683 3.00041L1.66741 12.3332ZM5.89899 9.04477L4.64938 9.35157L4.96227 8.09651L5.40848 7.65038L6.35093 8.59283L5.89899 9.04477ZM9.88548 3.1707L10.8283 4.11549L7.29374 7.65002L6.35133 6.70761L9.88548 3.1707Z" fill="#667074"/>
</svg>
