<svg width="15" height="15" viewBox="0 0 15 15" fill="none" xmlns="http://www.w3.org/2000/svg">
<path fill-rule="evenodd" clip-rule="evenodd" d="M2.6665 11.3336C2.6665 11.3342 9.33423 11.3333 9.33423 11.3333C9.33294 11.3333 9.33307 4.80199 9.33314 2.66667L2.6665 2.66667V11.3336ZM10.6665 11.3336C10.6665 12.0698 10.0685 12.6667 9.33422 12.6667H2.66545C1.92965 12.6667 1.33317 12.0711 1.33317 11.3336V2.66667C0.964927 2.66636 0.666504 2.37056 0.666504 2C0.666504 1.63181 0.962924 1.33333 1.33375 1.33333H4.6665C4.6665 0.596954 5.26346 0 5.99984 0C6.73622 0 7.33317 0.596954 7.33317 1.33333H10.6659C11.0344 1.33333 11.3332 1.62924 11.3332 2C11.3332 2.368 11.0371 2.66635 10.6665 2.66667V11.3336ZM6.6665 4.66503C6.6665 4.29774 6.96241 4 7.33317 4C7.70136 4 7.99984 4.29754 7.99984 4.66503V9.33497C7.99984 9.70226 7.70393 10 7.33317 10C6.96498 10 6.6665 9.70246 6.6665 9.33497V4.66503ZM3.99984 4.66503C3.99984 4.29774 4.29575 4 4.6665 4C5.03469 4 5.33317 4.29754 5.33317 4.66503V9.33497C5.33317 9.70226 5.03726 10 4.6665 10C4.29831 10 3.99984 9.70246 3.99984 9.33497V4.66503Z" fill="#667074"/>
</svg>
