<svg width="16px" height="16px" viewBox="0 0 36 36" fill="none" xmlns="http://www.w3.org/2000/svg">
  <path d="M9.99147 14C11.098 14 12 13.1046 12 12C12 10.8877 11.1007 10 9.99147 10H6.6291C9.682 5.93375 13.3332 4 18 4C25.732 4 32 10.268 32 18C32 25.732 25.732 32 18 32C10.9194 32 4.9757 26.7135 4.10824 19.7511C3.97167 18.655 2.9724 17.8771 1.87631 18.0137C0.780213 18.1503 0.00236131 19.1495 0.138927 20.2456C1.25513 29.2045 8.89538 36 18 36C27.9411 36 36 27.9411 36 18C36 8.05887 27.9411 0 18 0C12.278 0 7.68899 2.32202 4 6.87321V4.00853C4 2.90195 3.10457 2 2 2C0.938287 2 0.0811667 2.81936 0.00544024 3.85863L0 12C0 12.5547 0.223663 13.0536 0.588579 13.4135C0.950285 13.7757 1.44913 14 2.00853 14H9.99147Z" fill="#667074"/>
  <path d="M22 13.0001C22 13.0001 13.5 9.49979 13.5 15C13.5 20.5003 22.5 16.0001 22.5 21.4999C22.5 26.9997 14 23.9999 14 23.9999" stroke="#667074" stroke-width="4" stroke-linecap="round" stroke-linejoin="round"/>
  <path d="M18 10V26" stroke="#667074" stroke-width="4" stroke-linecap="round"/>
</svg>
