<svg width="16" height="16" viewBox="0 0 16 16" fill="none" xmlns="http://www.w3.org/2000/svg">
<path d="M12.6667 4.27614L6.4714 10.4714C6.21105 10.7318 5.78895 10.7318 5.5286 10.4714C5.26825 10.2111 5.26825 9.78895 5.5286 9.5286L11.7239 3.33333H10C9.63181 3.33333 9.33333 3.03486 9.33333 2.66667C9.33333 2.29848 9.63181 2 10 2H13.3333C13.7015 2 14 2.29848 14 2.66667V6C14 6.36819 13.7015 6.66667 13.3333 6.66667C12.9651 6.66667 12.6667 6.36819 12.6667 6V4.27614ZM12.6667 8.66667C12.6667 8.29848 12.9651 8 13.3333 8C13.7015 8 14 8.29848 14 8.66667V12.6683C14 13.4045 13.4042 14 12.6668 14H3.33324C2.59657 14 2 13.4045 2 12.6668V3.33324C2 2.59722 2.59571 2 3.3317 2H7.33333C7.70152 2 8 2.29848 8 2.66667C8 3.03486 7.70152 3.33333 7.33333 3.33333H3.33333V12.6667H12.6667V8.66667Z" fill="white"/>
</svg>
