<svg width="36" height="24" viewBox="0 0 36 24" fill="none" xmlns="http://www.w3.org/2000/svg">
<rect x="0.3" y="0.3" width="35.4" height="23.4" rx="4.5" fill="#6461FC"/>
<path d="M22.9864 8.82389C22.7326 8.82243 22.481 8.87107 22.246 8.96705C22.0111 9.06302 21.7973 9.20444 21.6171 9.38318L21.5271 8.93961H19.9907V17.2453L21.7393 16.866V14.8539C22.0871 15.1451 22.5264 15.3045 22.98 15.3039C24.2271 15.3039 25.3714 14.2818 25.3714 12.0189C25.3714 9.94889 24.2143 8.82389 22.9864 8.82389ZM22.5686 13.7289C22.4152 13.7377 22.2618 13.7123 22.1195 13.6545C21.9771 13.5967 21.8495 13.5079 21.7457 13.3946V10.7525C21.8499 10.635 21.979 10.5423 22.1236 10.4812C22.2682 10.42 22.4246 10.3919 22.5814 10.3989C23.2243 10.3989 23.6614 11.1253 23.6614 12.0575C23.6614 12.9896 23.2179 13.7289 22.5686 13.7289Z" fill="white"/>
<path d="M28.5986 8.82389C26.9143 8.82389 25.8921 10.2768 25.8921 12.1089C25.8921 14.2753 27.1007 15.3746 28.8236 15.3746C29.496 15.3856 30.16 15.224 30.7521 14.9053V13.4589C30.2144 13.7302 29.6187 13.867 29.0164 13.8575C28.3221 13.8575 27.7307 13.6068 27.6407 12.7646H31.0993C31.0993 12.6682 31.0993 12.2889 31.0993 12.1218C31.1571 10.2768 30.2829 8.82389 28.5986 8.82389ZM27.6536 11.4403C27.6536 10.6303 28.1486 10.2896 28.5857 10.2896C29.0229 10.2896 29.4857 10.6303 29.4857 11.4403H27.6536Z" fill="white"/>
<path d="M15.2721 9.42175L15.1629 8.89461H13.6714V15.1368H15.3943V10.9068C15.5499 10.7178 15.7594 10.5809 15.9949 10.5143C16.2304 10.4477 16.4806 10.4545 16.7121 10.5339V8.89461C16.4491 8.79158 16.1575 8.7883 15.8923 8.8854C15.627 8.9825 15.4065 9.17327 15.2721 9.42175Z" fill="white"/>
<path d="M6.56784 10.7718C6.56784 10.4889 6.79927 10.3796 7.1657 10.3796C7.77299 10.3927 8.36825 10.5514 8.90141 10.8425V9.15175C8.35018 8.92887 7.76025 8.81744 7.1657 8.8239C5.74499 8.8239 4.79999 9.58247 4.79999 10.8553C4.79999 12.8482 7.46142 12.5268 7.46142 13.3818C7.46142 13.716 7.17856 13.8253 6.81856 13.8253C6.13936 13.7856 5.47888 13.5875 4.88999 13.2468V14.976C5.49693 15.2467 6.15398 15.3869 6.81856 15.3875C8.27142 15.3875 9.27427 14.6482 9.27427 13.356C9.24213 11.196 6.56784 11.5818 6.56784 10.7718Z" fill="white"/>
<path d="M11.595 7.41604L9.89142 7.78889V13.5296C9.88264 13.7715 9.92328 14.0127 10.0109 14.2384C10.0984 14.4641 10.2311 14.6696 10.4008 14.8422C10.5705 15.0149 10.7736 15.1512 10.9977 15.2427C11.2218 15.3343 11.4622 15.3791 11.7043 15.3746C12.1266 15.3935 12.5474 15.312 12.9321 15.1368V13.6903C12.7071 13.7868 11.6079 14.1146 11.6079 13.0475V10.476H12.9321V8.97175H11.6079L11.595 7.41604Z" fill="white"/>
<path d="M17.3614 8.35461L19.1164 7.98818V6.59961L17.3614 6.96604V8.35461Z" fill="white"/>
<path d="M19.1164 8.93961H17.3614V15.1368H19.1164V8.93961Z" fill="white"/>
<rect x="0.3" y="0.3" width="35.4" height="23.4" rx="4.5" stroke="#CCCCCC" stroke-width="0.6"/>
</svg>
