<svg xmlns="http://www.w3.org/2000/svg" width="17" height="17" viewBox="0 0 17 17">
    <g fill="none" fill-rule="evenodd">
        <g fill="#667074">
            <g>
                <path d="M307.798 359.465l-6.893 6.89c-1.465 1.47-3.84 1.47-5.306 0-1.466-1.46-1.466-3.84 0-5.3l6.892-6.9c.88-.88 2.305-.88 3.184 0 .88.88.88 2.31 0 3.19l-6.9 6.89c-.293.29-.768.29-1.06 0-.295-.29-.295-.77 0-1.06l6.366-6.36c.293-.29.293-.77 0-1.06-.292-.3-.767-.3-1.06 0l-6.368 6.36c-.879.88-.879 2.3 0 3.18.88.88 2.304.88 3.183 0l6.9-6.89c1.465-1.47 1.465-3.84 0-5.31-1.465-1.46-3.84-1.46-5.306 0l-6.892 6.89c-2.05 2.06-2.05 5.38 0 7.43 2.051 2.05 5.377 2.05 7.428 0l6.893-6.89c.292-.29.292-.77 0-1.06-.293-.29-.768-.29-1.06 0z" transform="translate(-540 -431) translate(247 79)"/>
            </g>
        </g>
    </g>
</svg>
