<svg id="audios-image-active-1" width="16" height="16" viewBox="0 0 16 16" xmlns="http://www.w3.org/2000/svg">
    <path d="M15.5 11.75a2.249 2.249 0 0 1-2.096 2.245L13.25 14h-1.5a2.249 2.249 0 0 1-.154-4.495l.154-.005H14V2.135l-7.5 1.25v9.865a2.249 2.249 0 0 1-2.096 2.245l-.154.005h-1.5a2.249 2.249 0 0 1-.154-4.495L2.75 11H5V2.75a.75.75 0 0 1 .521-.714l.106-.026 9-1.5a.75.75 0 0 1 .867.643l.006.097v10.5zM5 12.5H2.75a.749.749 0 0 0-.102 1.493L2.75 14h1.5c.38 0 .694-.281.743-.648L5 13.25v-.75zm9-1.5h-2.25a.749.749 0 0 0-.102 1.493l.102.007h1.5c.38 0 .694-.281.743-.648L14 11.75V11z" fill="currentColor" fill-rule="nonzero"/>
</svg>
