<svg width="20" height="20" viewBox="0 0 20 20" fill="none" xmlns="http://www.w3.org/2000/svg">
<path fill-rule="evenodd" clip-rule="evenodd" d="M10 8.58579L12.478 6.10779C12.8674 5.71835 13.4986 5.72039 13.8891 6.11091C14.2823 6.50416 14.281 7.1332 13.8922 7.522L11.4142 10L13.8922 12.478C14.281 12.8668 14.2823 13.4958 13.8891 13.8891C13.4986 14.2796 12.8674 14.2816 12.478 13.8922L10 11.4142L7.522 13.8922C7.13257 14.2816 6.50144 14.2796 6.11091 13.8891C5.71767 13.4958 5.71899 12.8668 6.10779 12.478L8.58579 10L6.10779 7.522C5.71899 7.1332 5.71767 6.50416 6.11091 6.11091C6.50144 5.72039 7.13257 5.71835 7.522 6.10779L10 8.58579ZM10 20C4.47715 20 0 15.5228 0 10C0 4.47715 4.47715 0 10 0C15.5228 0 20 4.47715 20 10C20 15.5228 15.5228 20 10 20ZM10 18C14.4183 18 18 14.4183 18 10C18 5.58172 14.4183 2 10 2C5.58172 2 2 5.58172 2 10C2 14.4183 5.58172 18 10 18Z" fill="white"/>
</svg>
