<svg xmlns="http://www.w3.org/2000/svg" xmlns:xlink="http://www.w3.org/1999/xlink" version="1.1" width="1000" height="1000" viewBox="0 0 1000 1000" xml:space="preserve">
<desc>Created with Fabric.js 3.5.0</desc>
<defs>
</defs>
<rect x="0" y="0" width="100%" height="100%" fill="rgba(102,51,102,0)"/>
<g transform="matrix(-37.8788 0 0 37.8788 500.0001 500.0001)" id="758013">
<g style="" vector-effect="non-scaling-stroke">
		<g transform="matrix(1 0 0 1 0 0)" id="blur-off">
<path style="stroke: none; stroke-width: 1; stroke-dasharray: none; stroke-linecap: butt; stroke-dashoffset: 0; stroke-linejoin: miter; stroke-miterlimit: 4; is-custom-font: none; font-file-url: none; fill: none; fill-rule: nonzero; opacity: 1;" transform=" translate(-12, -12)" d="M 0 0 h 24 v 24 H 0 V 0 z" stroke-linecap="round"/>
</g>
		<g transform="matrix(1 0 0 1 2 -6)" id="blur-off">
<circle style="stroke: none; stroke-width: 1; stroke-dasharray: none; stroke-linecap: butt; stroke-dashoffset: 0; stroke-linejoin: miter; stroke-miterlimit: 4; is-custom-font: none; font-file-url: none; fill: rgb(255,255,255); fill-rule: nonzero; opacity: 1;" cx="0" cy="0" r="1"/>
</g>
		<g transform="matrix(1 0 0 1 0.5 -5)" id="blur-off">
<path style="stroke: none; stroke-width: 1; stroke-dasharray: none; stroke-linecap: butt; stroke-dashoffset: 0; stroke-linejoin: miter; stroke-miterlimit: 4; is-custom-font: none; font-file-url: none; fill: rgb(255,255,255); fill-rule: nonzero; opacity: 1;" transform=" translate(-12.5, -7)" d="M 13.8 11.48 l 0.2 0.02 c 0.83 0 1.5 -0.67 1.5 -1.5 s -0.67 -1.5 -1.5 -1.5 s -1.5 0.67 -1.5 1.5 l 0.02 0.2 c 0.09 0.67 0.61 1.19 1.28 1.28 z M 14 3.5 c 0.28 0 0.5 -0.22 0.5 -0.5 s -0.22 -0.5 -0.5 -0.5 s -0.5 0.22 -0.5 0.5 s 0.22 0.5 0.5 0.5 z m -4 0 c 0.28 0 0.5 -0.22 0.5 -0.5 s -0.22 -0.5 -0.5 -0.5 s -0.5 0.22 -0.5 0.5 s 0.22 0.5 0.5 0.5 z" stroke-linecap="round"/>
</g>
		<g transform="matrix(1 0 0 1 6 -2)" id="blur-off">
<circle style="stroke: none; stroke-width: 1; stroke-dasharray: none; stroke-linecap: butt; stroke-dashoffset: 0; stroke-linejoin: miter; stroke-miterlimit: 4; is-custom-font: none; font-file-url: none; fill: rgb(255,255,255); fill-rule: nonzero; opacity: 1;" cx="0" cy="0" r="1"/>
</g>
		<g transform="matrix(1 0 0 1 6 -6)" id="blur-off">
<circle style="stroke: none; stroke-width: 1; stroke-dasharray: none; stroke-linecap: butt; stroke-dashoffset: 0; stroke-linejoin: miter; stroke-miterlimit: 4; is-custom-font: none; font-file-url: none; fill: rgb(255,255,255); fill-rule: nonzero; opacity: 1;" cx="0" cy="0" r="1"/>
</g>
		<g transform="matrix(1 0 0 1 9 -2)" id="blur-off">
<path style="stroke: none; stroke-width: 1; stroke-dasharray: none; stroke-linecap: butt; stroke-dashoffset: 0; stroke-linejoin: miter; stroke-miterlimit: 4; is-custom-font: none; font-file-url: none; fill: rgb(255,255,255); fill-rule: nonzero; opacity: 1;" transform=" translate(-21, -10)" d="M 21 10.5 c 0.28 0 0.5 -0.22 0.5 -0.5 s -0.22 -0.5 -0.5 -0.5 s -0.5 0.22 -0.5 0.5 s 0.22 0.5 0.5 0.5 z" stroke-linecap="round"/>
</g>
		<g transform="matrix(1 0 0 1 -2 -6)" id="blur-off">
<circle style="stroke: none; stroke-width: 1; stroke-dasharray: none; stroke-linecap: butt; stroke-dashoffset: 0; stroke-linejoin: miter; stroke-miterlimit: 4; is-custom-font: none; font-file-url: none; fill: rgb(255,255,255); fill-rule: nonzero; opacity: 1;" cx="0" cy="0" r="1"/>
</g>
		<g transform="matrix(1 0 0 1 6 2)" id="blur-off">
<circle style="stroke: none; stroke-width: 1; stroke-dasharray: none; stroke-linecap: butt; stroke-dashoffset: 0; stroke-linejoin: miter; stroke-miterlimit: 4; is-custom-font: none; font-file-url: none; fill: rgb(255,255,255); fill-rule: nonzero; opacity: 1;" cx="0" cy="0" r="1"/>
</g>
		<g transform="matrix(1 0 0 1 -6 6)" id="blur-off">
<circle style="stroke: none; stroke-width: 1; stroke-dasharray: none; stroke-linecap: butt; stroke-dashoffset: 0; stroke-linejoin: miter; stroke-miterlimit: 4; is-custom-font: none; font-file-url: none; fill: rgb(255,255,255); fill-rule: nonzero; opacity: 1;" cx="0" cy="0" r="1"/>
</g>
		<g transform="matrix(1 0 0 1 0 5.5)" id="blur-off">
<path style="stroke: none; stroke-width: 1; stroke-dasharray: none; stroke-linecap: butt; stroke-dashoffset: 0; stroke-linejoin: miter; stroke-miterlimit: 4; is-custom-font: none; font-file-url: none; fill: rgb(255,255,255); fill-rule: nonzero; opacity: 1;" transform=" translate(-12, -17.5)" d="M 14 20.5 c -0.28 0 -0.5 0.22 -0.5 0.5 s 0.22 0.5 0.5 0.5 s 0.5 -0.22 0.5 -0.5 s -0.22 -0.5 -0.5 -0.5 z m 7 -7 c -0.28 0 -0.5 0.22 -0.5 0.5 s 0.22 0.5 0.5 0.5 s 0.5 -0.22 0.5 -0.5 s -0.22 -0.5 -0.5 -0.5 z m -18 0 c -0.28 0 -0.5 0.22 -0.5 0.5 s 0.22 0.5 0.5 0.5 s 0.5 -0.22 0.5 -0.5 s -0.22 -0.5 -0.5 -0.5 z" stroke-linecap="round"/>
</g>
		<g transform="matrix(1 0 0 1 -2 6)" id="blur-off">
<circle style="stroke: none; stroke-width: 1; stroke-dasharray: none; stroke-linecap: butt; stroke-dashoffset: 0; stroke-linejoin: miter; stroke-miterlimit: 4; is-custom-font: none; font-file-url: none; fill: rgb(255,255,255); fill-rule: nonzero; opacity: 1;" cx="0" cy="0" r="1"/>
</g>
		<g transform="matrix(1 0 0 1 -5.5 3.5)" id="blur-off">
<path style="stroke: none; stroke-width: 1; stroke-dasharray: none; stroke-linecap: butt; stroke-dashoffset: 0; stroke-linejoin: miter; stroke-miterlimit: 4; is-custom-font: none; font-file-url: none; fill: rgb(255,255,255); fill-rule: nonzero; opacity: 1;" transform=" translate(-6.5, -15.5)" d="M 3 9.5 c -0.28 0 -0.5 0.22 -0.5 0.5 s 0.22 0.5 0.5 0.5 s 0.5 -0.22 0.5 -0.5 s -0.22 -0.5 -0.5 -0.5 z m 7 11 c -0.28 0 -0.5 0.22 -0.5 0.5 s 0.22 0.5 0.5 0.5 s 0.5 -0.22 0.5 -0.5 s -0.22 -0.5 -0.5 -0.5 z" stroke-linecap="round"/>
</g>
		<g transform="matrix(1 0 0 1 -6 2)" id="blur-off">
<circle style="stroke: none; stroke-width: 1; stroke-dasharray: none; stroke-linecap: butt; stroke-dashoffset: 0; stroke-linejoin: miter; stroke-miterlimit: 4; is-custom-font: none; font-file-url: none; fill: rgb(255,255,255); fill-rule: nonzero; opacity: 1;" cx="0" cy="0" r="1"/>
</g>
		<g transform="matrix(1 0 0 1 -0.68 0.675)" id="blur-off">
<path style="stroke: none; stroke-width: 1; stroke-dasharray: none; stroke-linecap: butt; stroke-dashoffset: 0; stroke-linejoin: miter; stroke-miterlimit: 4; is-custom-font: none; font-file-url: none; fill: rgb(255,255,255); fill-rule: nonzero; opacity: 1;" transform=" translate(-11.32, -12.675)" d="M 3.21 4.56 c -0.39 0.39 -0.39 1.02 0 1.41 l 3.07 3.07 L 6 9 c -0.55 0 -1 0.45 -1 1 s 0.45 1 1 1 s 1 -0.45 1 -1 c 0 -0.1 -0.03 -0.19 -0.06 -0.28 l 2.81 2.81 c -0.71 0.11 -1.25 0.73 -1.25 1.47 c 0 0.83 0.67 1.5 1.5 1.5 c 0.74 0 1.36 -0.54 1.47 -1.25 l 2.81 2.81 c -0.09 -0.03 -0.18 -0.06 -0.28 -0.06 c -0.55 0 -1 0.45 -1 1 s 0.45 1 1 1 s 1 -0.45 1 -1 c 0 -0.1 -0.03 -0.19 -0.06 -0.28 l 3.08 3.07 c 0.39 0.39 1.02 0.39 1.41 0 c 0.39 -0.39 0.39 -1.02 0 -1.42 L 4.62 4.56 c -0.39 -0.39 -1.02 -0.39 -1.41 0 z" stroke-linecap="round"/>
</g>
</g>
</g>
</svg>