<svg id="convo-video-disabled" width="16" height="15" viewBox="0 0 16 15" fill="none" xmlns="http://www.w3.org/2000/svg">
<path d="M15.2 9.76084V5.52884C15.2 4.81684 14.336 4.45684 13.832 4.96084L12 6.80084V4.00084C12 3.56084 11.64 3.20084 11.2 3.20084H6.71198L13.84 10.3288C14.336 10.8328 15.2 10.4728 15.2 9.76084ZM0.567984 0.448844C0.255984 0.760844 0.255984 1.26484 0.567984 1.57684L2.18398 3.20084H1.59998C1.15998 3.20084 0.799984 3.56084 0.799984 4.00084V12.0008C0.799984 12.4408 1.15998 12.8008 1.59998 12.8008H11.2C11.368 12.8008 11.512 12.7368 11.64 12.6568L13.624 14.6408C13.936 14.9528 14.44 14.9528 14.752 14.6408C15.064 14.3288 15.064 13.8248 14.752 13.5128L1.69598 0.448844C1.38398 0.136844 0.879984 0.136844 0.567984 0.448844Z" fill="white"/>
</svg>
