<svg id="convo-audio-enabled" width="12" height="16" viewBox="0 0 12 16" fill="none" xmlns="http://www.w3.org/2000/svg">
<path d="M6.00009 9.6C7.32809 9.6 8.40009 8.528 8.40009 7.2V2.4C8.40009 1.072 7.32809 0 6.00009 0C4.67209 0 3.60009 1.072 3.60009 2.4V7.2C3.60009 8.528 4.67209 9.6 6.00009 9.6ZM10.7281 7.2C10.3361 7.2 10.0081 7.488 9.94409 7.88C9.61609 9.76 7.97609 11.2 6.00009 11.2C4.02409 11.2 2.38409 9.76 2.05609 7.88C1.99209 7.488 1.66409 7.2 1.27209 7.2C0.784087 7.2 0.400087 7.632 0.472087 8.112C0.864087 10.512 2.78409 12.392 5.20009 12.736V14.4C5.20009 14.84 5.56009 15.2 6.00009 15.2C6.44009 15.2 6.80009 14.84 6.80009 14.4V12.736C9.21609 12.392 11.1361 10.512 11.5281 8.112C11.6081 7.632 11.2161 7.2 10.7281 7.2Z" fill="white"/>
</svg>
