<svg width="19" height="15" viewBox="0 0 19 15" fill="none" xmlns="http://www.w3.org/2000/svg">
<path fill-rule="evenodd" clip-rule="evenodd" d="M2.30074 0.0500488C1.41725 0.0500488 0.700012 0.764634 0.700012 1.64612V12.854C0.700012 13.736 1.41668 14.45 2.30074 14.45H16.6993C17.5828 14.45 18.3 13.7355 18.3 12.854V1.64612C18.3 0.764147 17.5833 0.0500488 16.6993 0.0500488H2.30074ZM9.50001 10.0596C9.94492 10.0596 10.3 9.70149 10.3 9.25975L10.3 7.18002L10.5326 7.41405C10.8441 7.7274 11.3507 7.72891 11.664 7.41743C11.9774 7.10594 11.9789 6.59941 11.6674 6.28606L10.0769 4.68606C9.76544 4.37271 9.2589 4.3712 8.94555 4.68269L7.33601 6.28269C7.02266 6.59418 7.02116 7.10071 7.33265 7.41405C7.64414 7.7274 8.15067 7.72891 8.46401 7.41742L8.70001 7.18442V9.25975C8.70001 9.70462 9.05818 10.0596 9.50001 10.0596Z" fill="white"/>
</svg>
