<svg id="convo-video-enabled" width="19" height="14" viewBox="0 0 19 14" fill="none" xmlns="http://www.w3.org/2000/svg">
<path fill-rule="evenodd" clip-rule="evenodd" d="M12.7 4.23637L15.1765 2.43531C15.3552 2.30535 15.6752 2.2 15.9012 2.2H17.4976C17.9408 2.2 18.3 2.55881 18.3 3.00198V10.998C18.3 11.4409 17.9454 11.8 17.4976 11.8H15.9012C15.6796 11.8 15.3536 11.6935 15.1765 11.5647L12.7 9.76364V11.7983C12.7 12.6829 11.9853 13.4 11.1003 13.4H2.29972C1.41623 13.4 0.700012 12.6844 0.700012 11.7983V2.20171C0.700012 1.31711 1.41473 0.600002 2.29972 0.600002H11.1003C11.9838 0.600002 12.7 1.31561 12.7 2.20171V4.23637ZM2.30001 2.2V11.8H11.1V2.2H2.30001ZM3.90001 9.4C3.90001 8.95817 4.25884 8.6 4.70236 8.6H8.69767C9.14079 8.6 9.50001 8.95509 9.50001 9.4C9.50001 9.84183 9.14119 10.2 8.69767 10.2H4.70236C4.25923 10.2 3.90001 9.84491 3.90001 9.4ZM12.7097 7.7923L16.0256 10.1999L16.7 10.1992V3.79883L16.0233 3.79783L12.7099 6.20755L12.7097 7.7923Z" fill="white"/>
</svg>
