<svg id="convo-video-disabled" width="20" height="17" viewBox="0 0 20 17" fill="none" xmlns="http://www.w3.org/2000/svg">
<path fill-rule="evenodd" clip-rule="evenodd" d="M1.06574 15.0343C0.753316 15.3467 0.753316 15.8533 1.06574 16.1657C1.37815 16.4781 1.88469 16.4781 2.19711 16.1657L3.96279 14.4H12.1003C12.9853 14.4 13.7001 13.6829 13.7001 12.7983V10.7636L16.1765 12.5647C16.3537 12.6935 16.6797 12.8 16.9012 12.8H18.4977C18.9454 12.8 19.3001 12.4409 19.3001 11.998V4.00198C19.3001 3.55881 18.9408 3.2 18.4977 3.2H16.9012C16.6752 3.2 16.3552 3.30535 16.1765 3.43531L13.7001 5.23637V4.66275L16.9049 1.45787C17.2173 1.14545 17.2173 0.638916 16.9049 0.326497C16.5925 0.0140777 16.086 0.0140772 15.7736 0.326495L13.5586 2.5415C13.3075 1.98575 12.749 1.6 12.1003 1.6H3.29976C2.41477 1.6 1.70005 2.31711 1.70005 3.20171V12.7983C1.70005 13.2414 1.87911 13.6418 2.16861 13.9314L1.06574 15.0343ZM5.56279 12.8H12.1001V6.26274L5.56279 12.8ZM12.1001 4L3.30005 12.8V3.2H12.1001V4ZM17.0256 11.1999L13.7097 8.7923L13.71 7.20755L17.0233 4.79783L17.7001 4.79883V11.1992L17.0256 11.1999Z" fill="white"/>
</svg>
