<svg width="10" height="10" viewBox="0 0 10 10" fill="none" xmlns="http://www.w3.org/2000/svg">
<path d="M6.49999 4.3V1.5C6.49999 0.67 5.82999 0 4.99999 0C4.22999 0 3.60499 0.58 3.51999 1.325L6.49999 4.3ZM8.03999 4.5C7.83499 4.5 7.65499 4.65 7.62499 4.855C7.59999 5.015 7.56499 5.175 7.51499 5.32L8.14999 5.955C8.29999 5.655 8.40999 5.33 8.46499 4.985C8.49999 4.73 8.29999 4.5 8.03999 4.5ZM0.85499 0.78C0.65999 0.975 0.65999 1.29 0.85499 1.485L3.49999 4.135V4.35C3.49999 4.945 3.79999 5.51 4.31499 5.805C4.68999 6.02 5.01999 6.025 5.32499 5.96L6.15499 6.79C5.79999 6.955 5.40499 7.05 4.99999 7.05C3.72999 7.05 2.55999 6.165 2.37499 4.855C2.34499 4.65 2.16499 4.5 1.95999 4.5C1.69999 4.5 1.49999 4.73 1.53499 4.985C1.76499 6.465 3.01499 7.635 4.49999 7.86V9C4.49999 9.275 4.72499 9.5 4.99999 9.5C5.27499 9.5 5.49999 9.275 5.49999 9V7.86C5.95499 7.795 6.38499 7.635 6.77499 7.41L8.51999 9.155C8.71499 9.35 9.02999 9.35 9.22499 9.155C9.41999 8.96 9.41999 8.645 9.22499 8.45L1.55999 0.78C1.36499 0.585 1.04999 0.585 0.85499 0.78Z" fill="#FC2125"/>
</svg>
