<svg id="convo-image-active-1" width="18" height="18" viewBox="0 0 18 18" xmlns="http://www.w3.org/2000/svg">
    <path d="M8.16522 5.12114L7.28268 6.00368C6.79505 6.49131 6.79594 7.28438 7.28564 7.77407L10.2263 10.7148C10.7192 11.2076 11.5087 11.2058 11.9967 10.7177L12.8793 9.83518C13.2055 9.50891 13.7332 9.50763 14.06 9.83437L17.2994 13.0738C17.788 13.5624 17.7903 14.3523 17.2974 14.8451L15.5308 16.6117C14.3927 17.7499 12.3265 18.0492 10.9448 17.2224C10.9448 17.2224 8.73167 16.2912 5.24131 12.8008C1.75095 9.31045 0.785487 7.05614 0.785487 7.05614C-0.019518 5.6612 0.253615 3.60466 1.38869 2.46958L3.15527 0.703005C3.64496 0.213307 4.43494 0.209331 4.9266 0.700983L8.16604 3.94042C8.49186 4.26625 8.49259 4.79377 8.16522 5.12114ZM2.5672 3.64809C1.9643 4.25099 1.86228 5.45751 2.22903 6.22308C2.22903 6.22308 2.81771 7.29138 3.08417 7.68453C3.87173 8.84656 4.967 10.1695 6.41982 11.6223C7.87242 13.0749 9.18715 14.1634 10.3355 14.9398C10.7232 15.2019 11.8007 15.7922 11.8007 15.7922C12.4983 16.1573 13.7386 16.0469 14.3523 15.4332L15.8271 13.9585L13.47 11.6014L13.1752 11.8962C12.035 13.0365 10.1902 13.0357 9.04782 11.8933L6.10713 8.95258C4.9675 7.81295 4.96472 5.96462 6.10417 4.82517L6.39896 4.53037L4.04194 2.17335L2.5672 3.64809Z" fill="currentColor" fill-rule="evenodd" />
</svg>
