<svg id="convo-audio" width="20" height="30" viewBox="0 0 20 30" fill="none" xmlns="http://www.w3.org/2000/svg">
    <path fill-rule="evenodd" clip-rule="evenodd" d="M18 14.333C19.1046 14.333 20 15.2284 20 16.333C20 17.4376 19.1046 18.333 18 18.333H17.7528C16.9785 21.3705 14.4644 23.6976 11.3333 24.2225V26.9997H8.66667V24.2223C5.5375 23.6967 3.02284 21.3682 2.24775 18.333H2C0.895431 18.333 0 17.4376 0 16.333C0 15.2284 0.895431 14.333 2 14.333V8.32859C2 3.9123 5.58137 0.333008 10 0.333008C14.4162 0.333008 18 3.91665 18 8.32859V14.333ZM10 2.99967C8.02451 2.99967 6.30039 4.07228 5.37871 5.66634H7.3346C8.07028 5.66634 8.66667 6.25816 8.66667 6.99967C8.66667 7.73605 8.07553 8.33301 7.3346 8.33301H4.66667V9.66634H7.3346C8.07028 9.66634 8.66667 10.2582 8.66667 10.9997C8.66667 11.7361 8.07553 12.333 7.3346 12.333H4.66667V14.9997H15.3333V12.333H12.6654C11.9245 12.333 11.3333 11.7361 11.3333 10.9997C11.3333 10.2582 11.9297 9.66634 12.6654 9.66634H15.3333V8.33301H12.6654C11.9245 8.33301 11.3333 7.73605 11.3333 6.99967C11.3333 6.25816 11.9297 5.66634 12.6654 5.66634H14.6196C13.6971 4.07329 11.9729 2.99967 10 2.99967ZM4.8343 17.6663C5.42607 19.9643 7.51589 21.6663 10 21.6663C12.4869 21.6663 14.5755 19.9665 15.1662 17.6663H4.8343ZM3.33333 28.333C3.33333 27.5966 3.93214 26.9997 4.66053 26.9997H15.3395C16.0725 26.9997 16.6667 27.5915 16.6667 28.333C16.6667 29.0694 16.0679 29.6663 15.3395 29.6663H4.66053C3.92754 29.6663 3.33333 29.0745 3.33333 28.333Z" fill="currentColor"/>
</svg>
