<svg id="convo-camera" width="30" height="22" viewBox="0 0 30 22" fill="none" xmlns="http://www.w3.org/2000/svg">
    <path fill-rule="evenodd" clip-rule="evenodd" d="M20.3335 6.39361L24.4609 3.39185C24.7587 3.17526 25.2921 2.99967 25.6688 2.99967H28.3295C29.0681 2.99967 29.6668 3.59769 29.6668 4.33631V17.663C29.6668 18.4012 29.0758 18.9997 28.3295 18.9997H25.6688C25.2995 18.9997 24.7562 18.8222 24.4609 18.6075L20.3335 15.6057V18.9968C20.3335 20.4712 19.1423 21.6663 17.6673 21.6663H2.99968C1.52719 21.6663 0.333496 20.4737 0.333496 18.9968V3.00251C0.333496 1.52819 1.52469 0.333008 2.99968 0.333008H17.6673C19.1398 0.333008 20.3335 1.52569 20.3335 3.00251V6.39361ZM3.00016 2.99967V18.9997H17.6668V2.99967H3.00016ZM5.66683 14.9997C5.66683 14.2633 6.26487 13.6663 7.00407 13.6663H13.6629C14.4015 13.6663 15.0002 14.2582 15.0002 14.9997C15.0002 15.7361 14.4021 16.333 13.6629 16.333H7.00407C6.26553 16.333 5.66683 15.7412 5.66683 14.9997ZM20.3497 12.3202L25.8761 16.3328L27.0002 16.3317V5.66439L25.8723 5.66272L20.35 9.67892L20.3497 12.3202Z" fill="currentColor"/>
</svg>
