<svg id="convo-3-dots" width="4" height="16" viewBox="0 0 4 16" fill="none" xmlns="http://www.w3.org/2000/svg">
<path fill-rule="evenodd" clip-rule="evenodd" d="M1.85 9.45039C0.966344 9.45039 0.25 8.73404 0.25 7.85039C0.25 6.96673 0.966344 6.25039 1.85 6.25039C2.73366 6.25039 3.45 6.96673 3.45 7.85039C3.45 8.73404 2.73366 9.45039 1.85 9.45039ZM1.85 3.85039C0.966344 3.85039 0.25 3.13405 0.25 2.25039C0.25 1.36673 0.966344 0.650391 1.85 0.650391C2.73366 0.650391 3.45 1.36673 3.45 2.25039C3.45 3.13405 2.73366 3.85039 1.85 3.85039ZM1.85 15.0504C0.966344 15.0504 0.25 14.334 0.25 13.4504C0.25 12.5667 0.966344 11.8504 1.85 11.8504C2.73366 11.8504 3.45 12.5667 3.45 13.4504C3.45 14.334 2.73366 15.0504 1.85 15.0504Z" fill="white"/>
</svg>
