<svg id="convo-audio-disabled" width="14" height="16" viewBox="0 0 14 16" fill="none" xmlns="http://www.w3.org/2000/svg">
<path d="M9.39979 6.88V2.4C9.39979 1.072 8.32779 0 6.99979 0C5.76779 0 4.76779 0.928 4.63179 2.12L9.39979 6.88ZM11.8638 7.2C11.5358 7.2 11.2478 7.44 11.1998 7.768C11.1598 8.024 11.1038 8.28 11.0238 8.512L12.0398 9.528C12.2798 9.048 12.4558 8.528 12.5438 7.976C12.5998 7.568 12.2798 7.2 11.8638 7.2ZM0.367789 1.248C0.0557891 1.56 0.0557891 2.064 0.367789 2.376L4.59979 6.616V6.96C4.59979 7.912 5.07979 8.816 5.90379 9.288C6.50379 9.632 7.03179 9.64 7.51979 9.536L8.84779 10.864C8.27979 11.128 7.64779 11.28 6.99979 11.28C4.96779 11.28 3.09579 9.864 2.79979 7.768C2.75179 7.44 2.46379 7.2 2.13579 7.2C1.71979 7.2 1.39979 7.568 1.45579 7.976C1.82379 10.344 3.82379 12.216 6.19979 12.576V14.4C6.19979 14.84 6.55979 15.2 6.99979 15.2C7.43979 15.2 7.79979 14.84 7.79979 14.4V12.576C8.52779 12.472 9.21579 12.216 9.83979 11.856L12.6318 14.648C12.9438 14.96 13.4478 14.96 13.7598 14.648C14.0718 14.336 14.0718 13.832 13.7598 13.52L1.49579 1.248C1.18379 0.936 0.679789 0.936 0.367789 1.248Z" fill="white"/>
</svg>
