<svg id="convo-audio-disabled" width="15" height="18" viewBox="0 0 15 18" fill="none" xmlns="http://www.w3.org/2000/svg">
<path fill-rule="evenodd" clip-rule="evenodd" d="M12.3 5.33137V8.6C12.9628 8.6 13.5 9.13726 13.5 9.8C13.5 10.4627 12.9628 11 12.3 11H12.1517C11.6871 12.8225 10.1787 14.2188 8.30005 14.5337V16.2H6.70005V14.5336C5.77583 14.3783 4.94096 13.9588 4.27595 13.3555L1.66573 15.9657C1.35331 16.2781 0.846783 16.2781 0.534363 15.9657C0.221944 15.6533 0.221944 15.1467 0.534363 14.8343L3.27989 12.0888C3.09337 11.7459 2.94749 11.3868 2.8487 11H2.70005C2.03731 11 1.50005 10.4627 1.50005 9.8C1.50005 9.13726 2.03731 8.6 2.70005 8.6V4.99735C2.70005 2.34758 4.84887 0.200001 7.50005 0.200001C9.57323 0.200001 11.3407 1.51629 12.0117 3.35703L13.3344 2.03432C13.6468 1.7219 14.1533 1.7219 14.4657 2.03432C14.7782 2.34673 14.7782 2.85327 14.4657 3.16569L12.3 5.33137ZM10.3687 5H9.09929C8.65473 5 8.30005 4.64183 8.30005 4.2C8.30005 3.75509 8.65788 3.4 9.09929 3.4H10.2718C9.71831 2.44417 8.68379 1.8 7.50005 1.8C6.31475 1.8 5.28028 2.44356 4.72728 3.4H5.90081C6.34222 3.4 6.70005 3.75509 6.70005 4.2C6.70005 4.64183 6.34537 5 5.90081 5H4.30005V5.8H5.90081C6.34222 5.8 6.70005 6.15509 6.70005 6.6C6.70005 7.04183 6.34537 7.4 5.90081 7.4H4.30005V9.80265C4.30005 10.1811 4.36607 10.5443 4.48724 10.8814L10.3687 5ZM7.50005 13C9.26778 13 10.7 11.5686 10.7 9.80265V6.93137L5.40934 12.2221C5.97031 12.7066 6.7012 13 7.50005 13ZM3.50005 17C3.50005 16.5582 3.85933 16.2 4.29637 16.2H10.7037C11.1435 16.2 11.5 16.5551 11.5 17C11.5 17.4418 11.1408 17.8 10.7037 17.8H4.29637C3.85657 17.8 3.50005 17.4449 3.50005 17Z" fill="white"/>
</svg>
