<svg xmlns="http://www.w3.org/2000/svg" xmlns:xlink="http://www.w3.org/1999/xlink" width="30px" height="22px" viewBox="0 0 22 22" version="1.1">
<g id="surface1">
<path style=" stroke:none;fill-rule:nonzero;fill:#ffffff;fill-opacity:1;" d="M 8.847656 2.453125 C 8.511719 2.8125 8.925781 3.386719 9.363281 3.164062 C 9.796875 2.933594 9.652344 2.324219 9.160156 2.320312 C 9.007812 2.320312 8.949219 2.34375 8.847656 2.453125 Z M 8.847656 2.453125 "/>
<path style=" stroke:none;fill-rule:nonzero;fill:#ffffff;fill-opacity:1;" d="M 12.589844 2.375 C 12.378906 2.539062 12.328125 2.75 12.441406 2.964844 C 12.585938 3.25 12.960938 3.292969 13.164062 3.046875 C 13.417969 2.746094 13.226562 2.320312 12.839844 2.320312 C 12.734375 2.320312 12.625 2.347656 12.589844 2.375 Z M 12.589844 2.375 "/>
<path style=" stroke:none;fill-rule:nonzero;fill:#ffffff;fill-opacity:1;" d="M 5.132812 4.679688 C 4.484375 4.972656 4.417969 5.871094 5.011719 6.273438 C 5.246094 6.433594 5.667969 6.445312 5.929688 6.308594 C 6.21875 6.152344 6.371094 5.902344 6.394531 5.570312 C 6.40625 5.371094 6.390625 5.253906 6.339844 5.144531 C 6.125 4.683594 5.578125 4.476562 5.132812 4.679688 Z M 5.132812 4.679688 "/>
<path style=" stroke:none;fill-rule:nonzero;fill:#ffffff;fill-opacity:1;" d="M 8.851562 4.644531 C 8.539062 4.773438 8.25 5.171875 8.25 5.476562 C 8.25 5.992188 8.65625 6.402344 9.171875 6.402344 C 10.0625 6.402344 10.410156 5.269531 9.675781 4.753906 C 9.53125 4.648438 9.445312 4.617188 9.226562 4.609375 C 9.078125 4.601562 8.910156 4.617188 8.851562 4.644531 Z M 8.851562 4.644531 "/>
<path style=" stroke:none;fill-rule:nonzero;fill:#ffffff;fill-opacity:1;" d="M 12.46875 4.683594 C 12.132812 4.839844 11.941406 5.125 11.9375 5.496094 C 11.9375 6.019531 12.3125 6.398438 12.835938 6.402344 C 13.109375 6.402344 13.226562 6.359375 13.429688 6.179688 C 14.207031 5.5 13.410156 4.257812 12.46875 4.683594 Z M 12.46875 4.683594 "/>
<path style=" stroke:none;fill-rule:nonzero;fill:#ffffff;fill-opacity:1;" d="M 16.132812 4.679688 C 15.484375 4.972656 15.417969 5.871094 16.011719 6.273438 C 16.246094 6.433594 16.667969 6.445312 16.929688 6.308594 C 17.21875 6.152344 17.371094 5.902344 17.394531 5.570312 C 17.40625 5.371094 17.390625 5.253906 17.335938 5.144531 C 17.125 4.683594 16.578125 4.476562 16.132812 4.679688 Z M 16.132812 4.679688 "/>
<path style=" stroke:none;fill-rule:nonzero;fill:#ffffff;fill-opacity:1;" d="M 8.648438 7.910156 C 8.386719 8.011719 8.082031 8.292969 7.945312 8.554688 C 7.800781 8.839844 7.78125 9.351562 7.90625 9.679688 C 8.113281 10.226562 8.625 10.546875 9.238281 10.519531 C 9.761719 10.492188 10.179688 10.222656 10.40625 9.761719 C 10.546875 9.46875 10.566406 8.996094 10.445312 8.675781 C 10.339844 8.386719 10.054688 8.085938 9.761719 7.941406 C 9.480469 7.804688 8.960938 7.785156 8.648438 7.910156 Z M 8.648438 7.910156 "/>
<path style=" stroke:none;fill-rule:nonzero;fill:#ffffff;fill-opacity:1;" d="M 12.398438 7.875 C 11.839844 8.105469 11.519531 8.527344 11.480469 9.085938 C 11.445312 9.632812 11.742188 10.148438 12.234375 10.398438 C 12.410156 10.488281 12.5 10.503906 12.847656 10.503906 C 13.160156 10.503906 13.289062 10.488281 13.40625 10.425781 C 13.710938 10.261719 13.917969 10.054688 14.054688 9.769531 C 14.394531 9.078125 14.121094 8.292969 13.40625 7.921875 C 13.21875 7.828125 12.585938 7.796875 12.398438 7.875 Z M 12.398438 7.875 "/>
<path style=" stroke:none;fill-rule:nonzero;fill:#ffffff;fill-opacity:1;" d="M 5.234375 8.308594 C 4.988281 8.394531 4.867188 8.492188 4.734375 8.6875 C 4.636719 8.84375 4.617188 8.910156 4.617188 9.179688 C 4.617188 9.453125 4.632812 9.507812 4.75 9.675781 C 5.164062 10.265625 6.0625 10.179688 6.339844 9.53125 C 6.542969 9.027344 6.253906 8.425781 5.730469 8.296875 C 5.5 8.238281 5.429688 8.242188 5.234375 8.308594 Z M 5.234375 8.308594 "/>
<path style=" stroke:none;fill-rule:nonzero;fill:#ffffff;fill-opacity:1;" d="M 16.234375 8.308594 C 15.988281 8.394531 15.867188 8.492188 15.734375 8.6875 C 15.636719 8.84375 15.621094 8.910156 15.621094 9.179688 C 15.621094 9.453125 15.632812 9.507812 15.75 9.675781 C 16.164062 10.265625 17.0625 10.179688 17.335938 9.53125 C 17.542969 9.027344 17.25 8.425781 16.730469 8.296875 C 16.5 8.238281 16.429688 8.242188 16.234375 8.308594 Z M 16.234375 8.308594 "/>
<path style=" stroke:none;fill-rule:nonzero;fill:#ffffff;fill-opacity:1;" d="M 2.453125 8.847656 C 2.347656 8.945312 2.320312 9.007812 2.320312 9.152344 C 2.320312 9.375 2.375 9.480469 2.535156 9.558594 C 2.726562 9.660156 2.894531 9.640625 3.042969 9.503906 C 3.207031 9.355469 3.25 9.191406 3.179688 9.019531 C 3.050781 8.710938 2.695312 8.625 2.453125 8.847656 Z M 2.453125 8.847656 "/>
<path style=" stroke:none;fill-rule:nonzero;fill:#ffffff;fill-opacity:1;" d="M 18.953125 8.847656 C 18.847656 8.945312 18.820312 9.007812 18.820312 9.152344 C 18.820312 9.375 18.875 9.480469 19.035156 9.558594 C 19.226562 9.660156 19.394531 9.640625 19.542969 9.503906 C 19.707031 9.355469 19.75 9.191406 19.679688 9.019531 C 19.550781 8.710938 19.195312 8.625 18.953125 8.847656 Z M 18.953125 8.847656 "/>
<path style=" stroke:none;fill-rule:nonzero;fill:#ffffff;fill-opacity:1;" d="M 8.65625 11.578125 C 8.335938 11.710938 7.992188 12.058594 7.890625 12.359375 C 7.785156 12.667969 7.800781 13.121094 7.921875 13.390625 C 8.4375 14.5 10.011719 14.460938 10.445312 13.320312 C 10.863281 12.214844 9.753906 11.132812 8.65625 11.578125 Z M 8.65625 11.578125 "/>
<path style=" stroke:none;fill-rule:nonzero;fill:#ffffff;fill-opacity:1;" d="M 12.386719 11.550781 C 11.441406 11.890625 11.164062 13.070312 11.859375 13.789062 C 12.503906 14.453125 13.625 14.289062 14.046875 13.46875 C 14.503906 12.585938 13.90625 11.539062 12.914062 11.484375 C 12.699219 11.472656 12.550781 11.492188 12.386719 11.550781 Z M 12.386719 11.550781 "/>
<path style=" stroke:none;fill-rule:nonzero;fill:#ffffff;fill-opacity:1;" d="M 5.132812 12.007812 C 4.835938 12.148438 4.644531 12.414062 4.609375 12.734375 C 4.582031 13.015625 4.648438 13.234375 4.824219 13.4375 C 5.199219 13.863281 5.824219 13.847656 6.199219 13.40625 C 6.5625 12.980469 6.433594 12.304688 5.933594 12.042969 C 5.714844 11.929688 5.339844 11.910156 5.132812 12.007812 Z M 5.132812 12.007812 "/>
<path style=" stroke:none;fill-rule:nonzero;fill:#ffffff;fill-opacity:1;" d="M 16.132812 12.007812 C 15.835938 12.148438 15.644531 12.414062 15.609375 12.734375 C 15.582031 13.015625 15.648438 13.234375 15.824219 13.4375 C 16.199219 13.863281 16.820312 13.847656 17.199219 13.40625 C 17.5625 12.980469 17.433594 12.304688 16.933594 12.042969 C 16.714844 11.929688 16.339844 11.910156 16.132812 12.007812 Z M 16.132812 12.007812 "/>
<path style=" stroke:none;fill-rule:nonzero;fill:#ffffff;fill-opacity:1;" d="M 2.535156 12.449219 C 2.363281 12.5625 2.324219 12.640625 2.320312 12.839844 C 2.320312 12.988281 2.347656 13.050781 2.445312 13.152344 C 2.796875 13.5 3.367188 13.105469 3.160156 12.65625 C 3.035156 12.398438 2.746094 12.300781 2.535156 12.449219 Z M 2.535156 12.449219 "/>
<path style=" stroke:none;fill-rule:nonzero;fill:#ffffff;fill-opacity:1;" d="M 19.035156 12.449219 C 18.863281 12.5625 18.824219 12.640625 18.820312 12.839844 C 18.820312 12.988281 18.847656 13.050781 18.945312 13.152344 C 19.296875 13.5 19.867188 13.105469 19.65625 12.65625 C 19.535156 12.398438 19.246094 12.300781 19.035156 12.449219 Z M 19.035156 12.449219 "/>
<path style=" stroke:none;fill-rule:nonzero;fill:#ffffff;fill-opacity:1;" d="M 5.132812 15.679688 C 4.484375 15.972656 4.417969 16.871094 5.011719 17.273438 C 5.246094 17.433594 5.667969 17.445312 5.929688 17.308594 C 6.21875 17.152344 6.371094 16.902344 6.394531 16.570312 C 6.40625 16.371094 6.390625 16.253906 6.339844 16.144531 C 6.125 15.683594 5.578125 15.476562 5.132812 15.679688 Z M 5.132812 15.679688 "/>
<path style=" stroke:none;fill-rule:nonzero;fill:#ffffff;fill-opacity:1;" d="M 8.851562 15.644531 C 8.539062 15.773438 8.25 16.171875 8.25 16.476562 C 8.25 16.992188 8.65625 17.402344 9.171875 17.402344 C 10.0625 17.402344 10.410156 16.269531 9.675781 15.753906 C 9.53125 15.648438 9.445312 15.617188 9.226562 15.609375 C 9.078125 15.601562 8.910156 15.617188 8.851562 15.644531 Z M 8.851562 15.644531 "/>
<path style=" stroke:none;fill-rule:nonzero;fill:#ffffff;fill-opacity:1;" d="M 12.46875 15.683594 C 12.132812 15.839844 11.941406 16.125 11.9375 16.496094 C 11.9375 17.019531 12.3125 17.398438 12.835938 17.402344 C 13.109375 17.402344 13.226562 17.359375 13.429688 17.179688 C 14.207031 16.5 13.410156 15.257812 12.46875 15.683594 Z M 12.46875 15.683594 "/>
<path style=" stroke:none;fill-rule:nonzero;fill:#ffffff;fill-opacity:1;" d="M 16.132812 15.679688 C 15.484375 15.972656 15.417969 16.871094 16.011719 17.273438 C 16.246094 17.433594 16.667969 17.445312 16.929688 17.308594 C 17.21875 17.152344 17.371094 16.902344 17.394531 16.570312 C 17.40625 16.371094 17.390625 16.253906 17.335938 16.144531 C 17.125 15.683594 16.578125 15.476562 16.132812 15.679688 Z M 16.132812 15.679688 "/>
<path style=" stroke:none;fill-rule:nonzero;fill:#ffffff;fill-opacity:1;" d="M 8.847656 18.953125 C 8.511719 19.3125 8.925781 19.886719 9.363281 19.664062 C 9.796875 19.433594 9.652344 18.824219 9.160156 18.820312 C 9.007812 18.820312 8.949219 18.84375 8.847656 18.953125 Z M 8.847656 18.953125 "/>
<path style=" stroke:none;fill-rule:nonzero;fill:#ffffff;fill-opacity:1;" d="M 12.589844 18.875 C 12.378906 19.039062 12.328125 19.25 12.441406 19.464844 C 12.585938 19.75 12.960938 19.792969 13.164062 19.546875 C 13.417969 19.246094 13.226562 18.820312 12.839844 18.820312 C 12.734375 18.820312 12.625 18.847656 12.589844 18.875 Z M 12.589844 18.875 "/>
</g>
</svg>