<svg id="convo-end-call" width="20" height="20" viewBox="0 0 20 20" fill="none" xmlns="http://www.w3.org/2000/svg">
<path d="M13.1999 11.9998V13.198C13.1999 13.6424 13.5585 14 14.0008 14H18.3989C19.0663 14 19.5999 13.461 19.5999 12.7962V10.3978C19.5999 8.8568 18.3893 7.27536 16.8959 6.8749C16.8959 6.8749 14.7103 6 9.97158 6C5.23291 6 3.09846 6.87023 3.09846 6.87023C1.59926 7.24689 0.399902 8.85263 0.399902 10.3978V12.7962C0.399902 13.4653 0.937629 14 1.60095 14H5.99896C6.44256 14 6.7999 13.6409 6.7999 13.198L6.7999 11.9998C6.7999 11.3372 7.33456 10.8 8.00369 10.8L11.9961 10.8C12.6609 10.8 13.1999 11.3377 13.1999 11.9998Z" fill="white"/>
</svg>
