<svg width="12" height="13" viewBox="0 0 12 13" fill="none" xmlns="http://www.w3.org/2000/svg">
<path fill-rule="evenodd" clip-rule="evenodd" d="M2.66663 11.3336C2.66663 11.3342 9.33435 11.3333 9.33435 11.3333C9.33306 11.3333 9.33319 4.80199 9.33326 2.66667H2.66663V11.3336ZM10.6666 11.3336C10.6666 12.0698 10.0686 12.6667 9.33435 12.6667H2.66557C1.92977 12.6667 1.33329 12.0711 1.33329 11.3336V2.66667C0.965049 2.66636 0.666626 2.37056 0.666626 2C0.666626 1.63181 0.963047 1.33333 1.33387 1.33333H4.66663C4.66663 0.596954 5.26358 0 5.99996 0C6.73634 0 7.33329 0.596954 7.33329 1.33333H10.666C11.0346 1.33333 11.3333 1.62924 11.3333 2C11.3333 2.368 11.0372 2.66635 10.6666 2.66667V11.3336ZM6.66663 4.66503C6.66663 4.29774 6.96254 4 7.33329 4C7.70148 4 7.99996 4.29754 7.99996 4.66503V9.33497C7.99996 9.70226 7.70405 10 7.33329 10C6.9651 10 6.66663 9.70246 6.66663 9.33497V4.66503ZM3.99996 4.66503C3.99996 4.29774 4.29587 4 4.66663 4C5.03482 4 5.33329 4.29754 5.33329 4.66503V9.33497C5.33329 9.70226 5.03738 10 4.66663 10C4.29844 10 3.99996 9.70246 3.99996 9.33497V4.66503Z" fill="#9BA1A3"/>
</svg>
