<svg xmlns="http://www.w3.org/2000/svg" width="36" height="36" viewBox="0 0 36 36">
    <defs>
        <filter id="7xxckxnu3a">
            <feColorMatrix in="SourceGraphic" values="0 0 0 0 0.607843 0 0 0 0 0.631373 0 0 0 0 0.639216 0 0 0 1.000000 0"/>
        </filter>
    </defs>
    <g fill="none" fill-rule="evenodd">
        <g>
            <g>
                <g filter="url(#7xxckxnu3a)" transform="translate(-1343 -183) translate(1113 159) translate(0 24)">
                    <g>
                        <path d="M0 0H36V36H0z" transform="translate(230)"/>
                        <path fill="#000" fill-rule="nonzero" d="M18 9.75c4.556 0 8.25 3.694 8.25 8.25s-3.694 8.25-8.25 8.25S9.75 22.556 9.75 18 13.444 9.75 18 9.75zm0 1.5c-3.728 0-6.75 3.022-6.75 6.75s3.022 6.75 6.75 6.75 6.75-3.022 6.75-6.75-3.022-6.75-6.75-6.75zm1.21 3.157l.07.063 3 3c.027.026.051.054.073.084l.053.083.04.084.027.08.019.088.005.043.002.028-.001.096-.013.095-.022.083-.033.083-.04.074-.055.078-.055.061-3 3c-.293.293-.767.293-1.06 0-.27-.27-.291-.695-.063-.99l.063-.07 1.719-1.72H15c-.414 0-.75-.336-.75-.75 0-.385.29-.702.663-.745L15 17.25h4.939l-1.72-1.72c-.27-.27-.29-.695-.062-.99l.063-.07c.27-.27.695-.291.99-.063z" transform="translate(230)"/>
                    </g>
                </g>
            </g>
        </g>
    </g>
</svg>
