<svg width="20" height="21" viewBox="0 0 20 21" fill="none" xmlns="http://www.w3.org/2000/svg">
<path fill-rule="evenodd" clip-rule="evenodd" d="M18 5.00011C18 4.44751 17.5537 4 17.0049 4C17 4.55237 16.5561 5 16 5C15.4477 5 15 4.55628 15 4.00019L13 4C13 4.55237 12.5561 5 12 5C11.4477 5 11 4.55628 11 4.00019L9 4C9 4.55237 8.55614 5 8 5C7.44772 5 7 4.55628 7 4.00019L5 4C5 4.55237 4.55614 5 4 5C3.44772 5 3 4.55628 3 4.00019C2.44573 4 2 4.44694 2 5.00011V7H18V5.00011ZM2 9V17.9999C2 18.5525 2.44631 19 2.99509 19H17.0049C17.5543 19 18 18.5531 18 17.9999V9H2ZM20 5.00011V17.9999C20 19.6564 18.6601 21 17.0049 21H2.99509C1.34053 21 0 19.6559 0 17.9999V5.00011C0 3.34359 1.33994 2 2.99509 2L3 0.999807C3 0.447629 3.44386 0 4 0C4.55228 0 5 0.443717 5 0.999807V2H7V0.999807C7 0.447629 7.44386 0 8 0C8.55228 0 9 0.443717 9 0.999807V2H11V0.999807C11 0.447629 11.4439 0 12 0C12.5523 0 13 0.443717 13 0.999807V2H15V0.999807C15 0.447629 15.4439 0 16 0C16.5523 0 17 0.443717 17 0.999807V2C18.6595 2 20 3.34415 20 5.00011Z" fill="#667074"/>
</svg>
