<svg width="20" height="20" viewBox="0 0 20 20" fill="none" xmlns="http://www.w3.org/2000/svg">
<path fill-rule="evenodd" clip-rule="evenodd" d="M10 20C4.47715 20 0 15.5228 0 10C0 4.47715 4.47715 0 10 0C15.5228 0 20 4.47715 20 10C20 15.5228 15.5228 20 10 20ZM10 18C14.4183 18 18 14.4183 18 10C18 5.58172 14.4183 2 10 2C5.58172 2 2 5.58172 2 10C2 14.4183 5.58172 18 10 18ZM7.79289 13.7071L4.79289 10.7071C4.40237 10.3166 4.40237 9.68342 4.79289 9.29289C5.18342 8.90237 5.81658 8.90237 6.20711 9.29289L8.5 11.5999L13.2929 6.79289C13.6834 6.40237 14.3166 6.40237 14.7071 6.79289C15.0976 7.18342 15.0976 7.81658 14.7071 8.20711L9.20711 13.7071C8.81658 14.0976 8.18342 14.0976 7.79289 13.7071Z" fill="#667074"/>
</svg>
