<svg width="48" height="48" viewBox="0 0 48 48" xmlns="http://www.w3.org/2000/svg">
    <path d="M40 12c0-1.105-.893-2-1.99-2A2.01 2.01 0 0 1 36 12c-1.105 0-2-.887-2-2h-4c0 1.105-.888 2-2 2-1.105 0-2-.887-2-2h-4c0 1.105-.888 2-2 2-1.105 0-2-.887-2-2h-4c0 1.105-.888 2-2 2-1.105 0-2-.887-2-2-1.109 0-2 .894-2 2v4h32v-4zM8 20v18c0 1.105.893 2 1.99 2h28.02c1.099 0 1.99-.894 1.99-2V20H8zm36-8v26c0 3.313-2.68 6-5.99 6H9.99A5.996 5.996 0 0 1 4 38V12c0-3.313 2.68-6 5.99-6L10 4c0-1.105.888-2 2-2 1.105 0 2 .887 2 2v2h4V4c0-1.105.888-2 2-2 1.105 0 2 .887 2 2v2h4V4c0-1.105.888-2 2-2 1.105 0 2 .887 2 2v2h4V4c0-1.105.888-2 2-2 1.105 0 2 .887 2 2v2c3.319 0 6 2.688 6 6z" fill="#667074" fill-rule="evenodd"/>
</svg>
