<svg xmlns="http://www.w3.org/2000/svg" width="136" height="102" viewBox="0 0 136 102">
    <g fill="none" fill-rule="evenodd">
        <g fill-rule="nonzero">
            <g>
                <g transform="translate(-370 -807) translate(370 807)">
                    <path fill="#EBEBEB" d="M0 89.511H136V90.511H0zM107.938 93.91H122.373V94.91H107.938zM74.136 93.055H90.092V94.055H74.136zM103.414 92.661H108.634V93.661H103.414zM27.328 91.833H39.076V92.833H27.328zM21.613 91.833H25.813V92.833H21.613zM35.76 92.986H50.501999999999995V93.986H35.76zM64.464 77.318h-52.52c-.857-.002-1.55-.7-1.55-1.561V1.547C10.4.692 11.091.001 11.943 0h52.52c.858 0 1.553.699 1.553 1.561v74.196c0 .862-.695 1.56-1.553 1.56zM11.944.055c-.82.001-1.483.67-1.483 1.492v74.21c0 .823.663 1.49 1.483 1.492h52.52c.82-.001 1.484-.669 1.485-1.492V1.547c-.001-.823-.665-1.49-1.485-1.492h-52.52zM123.3 77.318H70.777c-.857-.002-1.552-.7-1.553-1.561V1.547C69.233.691 69.925.001 70.777 0H123.3c.85.003 1.54.693 1.548 1.547v74.21c0 .86-.692 1.558-1.548 1.56zM70.777.055c-.82.001-1.484.669-1.485 1.492v74.21c.001.823.666 1.49 1.485 1.492H123.3c.82-.001 1.484-.669 1.485-1.492V1.547c-.001-.823-.665-1.49-1.485-1.492H70.777z"/>
                    <path fill="#F0F0F0" d="M72.545 53.015H75.404V87.19800000000001H72.545z" transform="rotate(180 73.974 70.107)"/>
                    <path fill="#F0F0F0" d="M17.609 87.199H74.305V89.476H17.609z" transform="rotate(180 45.957 88.337)"/>
                    <path fill="#F5F5F5" d="M16.513 53.015H72.545V87.19800000000001H16.513z"/>
                    <path fill="#E0E0E0" d="M73.22 50.861H76.17399999999999V53.015H73.22z" transform="rotate(180 74.697 51.938)"/>
                    <path fill="#EBEBEB" d="M15.746 50.861H73.22V53.015H15.746z"/>
                    <rect width="51.536" height="11.792" x="18.76" y="55.667" fill="#FFF" rx="5.896"/>
                    <rect width="51.536" height="11.792" x="18.76" y="70.98" fill="#FFF" rx="5.896"/>
                    <rect width="25.323" height="1.616" x="31.868" y="55.312" fill="#F5F5F5" rx=".808" transform="rotate(180 44.53 56.12)"/>
                    <rect width="25.323" height="1.616" x="31.868" y="70.625" fill="#F5F5F5" rx=".808" transform="rotate(180 44.53 71.433)"/>
                    <path fill="#E6E6E6" d="M113.013 64.23H121.635V65.887H113.013z"/>
                    <path fill="#E6E6E6" d="M106.406 32.808H107.997V89.511H106.406z" transform="rotate(180 107.202 61.16)"/>
                    <path fill="#F5F5F5" d="M100.896 64.227H113.016V65.884H100.896z" transform="rotate(180 106.956 65.056)"/>
                    <path fill="#E6E6E6" d="M113.013 79.486H121.635V81.143H113.013z"/>
                    <path fill="#F5F5F5" d="M100.896 79.486H113.016V81.143H100.896z" transform="rotate(180 106.956 80.314)"/>
                    <path fill="#E6E6E6" d="M113.013 33.716H121.635V35.373000000000005H113.013z"/>
                    <path fill="#F5F5F5" d="M100.896 33.716H113.016V35.373000000000005H100.896z" transform="rotate(180 106.956 34.544)"/>
                    <path fill="#E6E6E6" d="M113.013 48.972H121.635V50.629000000000005H113.013z"/>
                    <path fill="#F5F5F5" d="M100.896 48.974H113.016V50.631H100.896z" transform="rotate(180 106.956 49.803)"/>
                    <path fill="#E6E6E6" d="M118.527 32.808H120.118V89.511H118.527z" transform="rotate(180 119.322 61.16)"/>
                    <path fill="#F5F5F5" d="M111.422 32.808H113.01299999999999V89.511H111.422z" transform="rotate(180 112.218 61.16)"/>
                    <path fill="#F5F5F5" d="M100.896 32.808H102.487V89.511H100.896z" transform="rotate(180 101.691 61.16)"/>
                    <path fill="#E0E0E0" d="M23.906 7.756H95.768V46.106H23.906z" transform="rotate(180 59.837 26.931)"/>
                    <path fill="#F5F5F5" d="M22.092 7.756H94.743V46.106H22.092z" transform="rotate(180 58.417 26.931)"/>
                    <path fill="#FFF" d="M42.262 -6.793L74.567 -6.793 74.567 60.653 42.262 60.653z" transform="rotate(90 58.415 26.93)"/>
                </g>
                <g fill="#F5F5F5" transform="translate(-370 -807) translate(370 807) translate(15 96)">
                    <ellipse cx="53" cy="3" rx="53" ry="3"/>
                </g>
                <g>
                    <path fill="#15AFC5" d="M78.096 16.338H2.83c-.5-.001-.903-.401-.904-.896.001-.494.405-.894.904-.896h75.267c.499.002.903.402.904.896-.001.495-.405.895-.904.896z" transform="translate(-370 -807) translate(370 807) translate(28 40)"/>
                    <path fill="#263238" d="M78.096 16.338h-17.62c-.498-.001-.902-.401-.904-.896.002-.494.406-.894.904-.896h17.62c.499.002.903.402.904.896-.001.495-.405.895-.904.896z" opacity=".3" transform="translate(-370 -807) translate(370 807) translate(28 40)"/>
                    <path fill="#263238" d="M18.298 18.585H76.185V24.830000000000002H18.298z" transform="translate(-370 -807) translate(370 807) translate(28 40)"/>
                    <path fill="#FFF" d="M18.298 18.585H76.185V24.830000000000002H18.298z" opacity=".1" transform="translate(-370 -807) translate(370 807) translate(28 40)"/>
                    <path fill="#263238" d="M75.344 56L77.075 56 77.005 16.338 74.605 16.338z" transform="translate(-370 -807) translate(370 807) translate(28 40)"/>
                    <path fill="#FFF" d="M75.344 56L77.075 56 77.005 16.338 74.605 16.338z" opacity=".1" transform="translate(-370 -807) translate(370 807) translate(28 40)"/>
                    <path fill="#263238" d="M59.382 56L57.648 56 61.568 16.338 63.967 16.338z" transform="translate(-370 -807) translate(370 807) translate(28 40)"/>
                    <path fill="#FFF" d="M59.382 56L57.648 56 61.568 16.338 63.967 16.338z" opacity=".2" transform="translate(-370 -807) translate(370 807) translate(28 40)"/>
                    <path fill="#263238" d="M17.696 56L19.428 56 19.357 16.338 16.957 16.338z" transform="translate(-370 -807) translate(370 807) translate(28 40)"/>
                    <path fill="#FFF" d="M17.696 56L19.428 56 19.357 16.338 16.957 16.338z" opacity=".1" transform="translate(-370 -807) translate(370 807) translate(28 40)"/>
                    <path fill="#263238" d="M1.735 56L0 56 3.92 16.338 6.319 16.338z" transform="translate(-370 -807) translate(370 807) translate(28 40)"/>
                    <path fill="#FFF" d="M1.735 56L0 56 3.92 16.338 6.319 16.338z" opacity=".2" transform="translate(-370 -807) translate(370 807) translate(28 40)"/>
                    <path fill="#263238" d="M50.487 14.546L46.491 14.546 44.892 6.802 48.888 6.802z" transform="translate(-370 -807) translate(370 807) translate(28 40)"/>
                    <path fill="#263238" d="M55.788 12.95H38.454c-.273.004-.534-.107-.721-.304-.187-.196-.282-.462-.262-.731l.662-10.879C38.175.458 38.656.008 39.241 0h17.337c.273-.002.533.108.72.305.187.197.282.462.263.731l-.662 10.879c-.044.578-.526 1.027-1.11 1.036z" transform="translate(-370 -807) translate(370 807) translate(28 40)"/>
                    <path fill="#15AFC5" d="M55.517 12.95H38.182c-.272.004-.534-.107-.72-.304-.187-.196-.282-.462-.263-.731l.663-10.879C37.904.458 38.385.008 38.969 0h17.338c.272-.002.533.108.72.305.186.197.281.462.262.731l-.662 10.879c-.043.578-.525 1.027-1.11 1.036z" transform="translate(-370 -807) translate(370 807) translate(28 40)"/>
                    <path fill="#FFF" d="M38.18 12.412c-.122.001-.239-.047-.324-.134-.082-.09-.124-.21-.116-.331l.662-10.879c.02-.297.267-.53.567-.538h17.338c.122-.002.24.048.324.136.083.089.126.209.116.33l-.663 10.878c-.02.298-.266.532-.567.538H38.179z" transform="translate(-370 -807) translate(370 807) translate(28 40)"/>
                    <path fill="#000" d="M45.794 0L46.92 3.824 50.264 0z" opacity=".2" transform="translate(-370 -807) translate(370 807) translate(28 40)"/>
                </g>
                <g transform="translate(-370 -807) translate(370 807) translate(34 25)">
                    <path fill="#263238" d="M12.028 5.951c.027.209.157.366.295.355.139-.01.225-.19.198-.398-.027-.208-.157-.365-.293-.354-.135.01-.225.195-.2.397z"/>
                    <path fill="#A02724" d="M12.255 6.263c.245.54.56 1.045.939 1.502-.298.3-.844.178-.844.178l-.095-1.68z"/>
                    <path fill="#263238" d="M11.336 5.159c-.02.003-.042.003-.063 0-.062-.028-.092-.1-.067-.163.143-.366.457-.638.84-.728.033-.005.065.002.092.021.026.019.044.047.05.08.011.066-.034.13-.1.143-.301.072-.545.29-.652.579-.02.038-.058.063-.1.068z"/>
                    <path fill="#B55B52" d="M5.88 9.218l1.628 1.245L9.73 12.16c-.122.255-.195.53-.217.812-.079.622-.157 1.082 1.229 1.464.3.071.532.311.591.614.054.368-.17.812-1.451 1.031-1.24.185-2.507-.03-3.616-.614-.542-.27-.542-.596-.315-1.145.684-1.561.353-3.553-.07-5.104z"/>
                    <path fill="#15AFC5" d="M4.012 14.815c.312-.6.57-1.227.77-1.873 0 0 4.123-.225 5.485.181s2.208 2.165 2.208 2.165l-8.463-.473z"/>
                    <path fill="#B55B52" d="M5.737 17.875c-.1.304-.211.674-.317 1.015l-.307 1.056c-.19.703-.374 1.41-.518 2.113-.153.688-.27 1.384-.35 2.084-.083.643-.103 1.293-.06 1.94.016.275.058.546.125.813.017.054.03.113.05.165l.053.146c-.012-.026-.027-.052-.043-.076-.028-.04-.058-.078-.09-.114-.034-.042-.075-.079-.119-.11-.054-.039-.062-.033-.051-.02.079.057.165.106.255.144.122.054.27.108.42.16.307.102.646.197.996.29 1.4.35 2.926.624 4.416.94l-.05 1.876c-.795.106-1.595.172-2.397.198-.814.03-1.629.016-2.441-.04-.43-.03-.86-.082-1.284-.158-.222-.04-.453-.086-.697-.154-.28-.072-.553-.173-.813-.3-.193-.093-.375-.206-.543-.339-.119-.094-.229-.2-.328-.314-.062-.073-.12-.15-.174-.23-.027-.046-.057-.092-.081-.138l-.035-.065-.188-.381c-.057-.127-.103-.252-.151-.379-.172-.474-.295-.963-.37-1.461-.27-1.881-.056-3.56.226-5.191.152-.812.33-1.624.542-2.395.109-.393.223-.785.345-1.172.122-.387.252-.76.41-1.185l3.57 1.282z"/>
                    <path fill="#15AFC5" d="M3.228 14.479c2.563-.677 4.085 1.418 3.217 4.871-.868 3.454-1.158 3.583-1.158 3.583L0 22.053c.651-3.382.6-6.884 3.228-7.574z"/>
                    <path fill="#B55B52" d="M11.51 27.672l-.4-.035c-1.133 0-1.328.309-2.026.955l-.27 1.424c1.83.934 2.812-.092 2.815-.092h1.695l-.597-1.353c-.212-.498-.678-.842-1.218-.899zM5.181 6.525c.461 2.466.605 3.932 2.02 5.034 2.128 1.653 5.057.081 5.345-2.484.257-2.309-.543-5.954-3.098-6.601-1.158-.285-2.382.038-3.246.859-.865.82-1.25 2.024-1.021 3.192z"/>
                    <path fill="#263238" d="M10.077 7.386c1.763-.14 1.248-1.995.703-2.382.827-.314 1.397-1.624.602-2.522.467-1.215-.868-2.68-3.209-2.46C6.464.179 6.274 1.08 6.274 1.08s-2.048-.214-2.9 1.472c-.727 1.446.155 2.217.155 2.217S2 5.213 2.422 7.204c.45 2.15 2.105 1.651 2.105 1.651s-.371 1.97 1.867 1.998c1.934.024 1.958-1.421 1.958-1.421s2.506-.233 1.725-2.046z"/>
                    <path fill="#B55B52" d="M8.764 7.53c.198.528.584.966 1.085 1.228.646.33 1.14-.355 1.026-1.058-.103-.63-.654-1.44-1.335-1.478-.68-.038-1.017.652-.776 1.307zM35.063 68.513L37.474 67.536 35.771 61.758 33.359 62.732z"/>
                    <path fill="#000" d="M34.187 65.536L36.623 64.643 35.771 61.758 33.359 62.732z" opacity=".2"/>
                    <path fill="#263238" d="M37.265 66.573l-2.758.955c-.047.014-.086.047-.11.09-.022.043-.027.093-.012.14l.624 2.224c.083.239.342.366.583.287.952-.351 1.337-.54 2.514-1.05 1.16-.483 2.293-1.025 3.396-1.623.92-.542.367-1.465-.08-1.313-1.062.357-2.8.59-3.682.287-.154-.052-.321-.051-.475.003zM15.695 35.18s18.226 1.623 18.698 6.855c.95 10.643 2.406 20.906 2.406 20.906l-3.708 1.353s-4.538-11.691-4.479-20.027c-5.257-1.48-19.08.693-21.34-3.353-1.996-3.572-.244-6.138-.244-6.138l8.667.403z"/>
                    <path fill="#15AFC5" d="M32.814 65.135L37.431 63.579 37.23 61.482 32.025 63.154zM38.283 66.784c-.222.081-.452.134-.684.157-.024.004-.048-.01-.06-.034-.012-.022-.012-.05 0-.073.06-.093.592-.904.93-.892.08.005.15.055.19.132.073.11.086.257.036.381-.097.164-.244.281-.412.33zm-.543 0c.47-.073.79-.215.863-.39.03-.082.02-.177-.03-.246-.017-.04-.053-.066-.092-.068-.196-.009-.532.388-.754.704h.013z"/>
                    <path fill="#15AFC5" d="M37.804 66.819c-.016.003-.034.003-.05 0-.035-.004-.064-.017-.079-.035 0-.03-.532-.715-.254-1.04.072-.084.207-.144.365-.162.175-.034.368.007.462.1.255.25-.064.885-.393 1.115-.013.01-.03.018-.05.022zm0-1.11c-.08.016-.144.05-.18.095-.166.192.037.603.19.833.254-.254.439-.728.273-.89-.033-.03-.088-.065-.236-.046l-.047.008z"/>
                    <path fill="#B55B52" d="M22.159 70.231L24.736 70.11 25.156 64.039 22.58 64.161z"/>
                    <path fill="#263238" d="M24.796 69.671l-2.92-.092c-.048-.003-.096.012-.134.044-.037.032-.06.078-.063.127l-.214 2.297c-.005.124.04.243.125.333.084.09.201.143.325.146 1.017.014 1.503-.03 2.786 0 .79.025 2.343.141 3.426 0 1.082-.14.917-1.198.445-1.24-1.115-.088-2.61-.857-3.323-1.455-.128-.104-.288-.16-.453-.16z"/>
                    <path fill="#15AFC5" d="M25.713 70.493c-.234-.02-.464-.079-.69-.174-.023-.008-.041-.037-.045-.073-.004-.036.006-.073.027-.092.084-.087.835-.828 1.15-.613.072.049.123.15.135.27.032.176 0 .366-.086.496-.143.155-.318.222-.491.186zm-.521-.302c.46.165.813.161.93 0 .055-.089.073-.216.049-.331-.005-.059-.03-.109-.065-.133-.18-.124-.619.187-.936.464h.022z"/>
                    <path fill="#15AFC5" d="M25.05 70.04c-.014.002-.028.002-.042 0-.024-.012-.04-.031-.04-.052 0-.03-.05-.777.321-1.02.099-.07.24-.099.375-.076.147.006.27.084.295.19.068.283-.49.811-.853.957-.018.006-.038.006-.056 0zm.535-1.032c-.068-.003-.135.015-.183.049-.221.143-.27.571-.27.812.318-.184.693-.587.648-.774 0-.035-.038-.076-.158-.09l-.037.003z"/>
                    <path fill="#000" d="M22.58 64.161L25.159 64.039 24.915 67.512 22.346 67.509z" opacity=".2"/>
                    <path fill="#263238" d="M9.64 34.89s19.64 2.996 19.328 7.507c-.562 8.12-3.29 23.986-3.29 23.986l-3.869.054s-.914-16.275.543-22.208c-4.831 0-18.46-.167-20.318-2.644-2.056-2.736.057-7.036.057-7.036l7.55.34z"/>
                    <path fill="#15AFC5" d="M21.353 66.74L26.035 66.667 26.266 64.199 21.128 64.399zM13.099 14.206c-1.581-.309-8.713-.22-8.713-.22-1.478-.04-2.74 1.055-2.908 2.52-.25 2.195 1.148 7.099 1.197 9.6.06 3.07-.53 4.316-.589 8.451l13.609.622c0-8.316-.364-15.2-.692-18.502-.116-1.161-.323-2.166-1.904-2.471z"/>
                    <path fill="#FFF" d="M13.099 14.206c-1.581-.309-8.713-.22-8.713-.22-1.478-.04-2.74 1.055-2.908 2.52-.25 2.195 1.148 7.099 1.197 9.6.06 3.07-.53 4.316-.589 8.451l13.609.622c0-8.316-.364-15.2-.692-18.502-.116-1.161-.323-2.166-1.904-2.471z" opacity=".3"/>
                    <path fill="#B55B52" d="M14.963 16.825c.425 1.462.854 2.964 1.296 4.43.442 1.467.895 2.942 1.405 4.33.125.355.272.685.39 1.026l.21.48.027.059v.046-.019c-.047-.084-.105-.16-.174-.227-.092-.09-.127-.098-.135-.098.06.055.13.098.206.127.133.064.27.12.41.165.306.106.65.2 1 .295 1.42.36 2.968.636 4.476.959l-.049 1.875c-.81.109-1.624.175-2.441.198-.827.031-1.654.016-2.48-.046-.438-.032-.874-.088-1.307-.168-.228-.044-.464-.098-.719-.17-.302-.085-.593-.205-.868-.358-.218-.125-.419-.279-.596-.457-.136-.14-.253-.296-.348-.466l-.092-.17-.306-.58c-.18-.378-.375-.76-.543-1.136-.334-.76-.626-1.513-.92-2.268-.292-.755-.542-1.51-.794-2.268-.502-1.524-.955-3.03-1.357-4.6l3.709-.959z"/>
                    <path fill="#15AFC5" d="M11.097 15.318c1.861-1.894 4.24-.86 5.263 2.56 1.022 3.42.838 3.67.838 3.67l-5 1.935c-1.18-3.259-3.005-6.235-1.1-8.165z"/>
                    <path fill="#B55B52" d="M25.403 27.672l-.398-.035c-1.134 0-1.327.309-2.024.955l-.271 1.424c1.83.934 2.813-.092 2.813-.092h1.698l-.6-1.353c-.21-.5-.678-.844-1.218-.899z"/>
                    <rect width="18.766" height="2.495" x="1.991" y="42.725" fill="#15AFC5" rx="1.248" transform="rotate(180 11.374 43.972)"/>
                    <path fill="#15AFC5" d="M2.761 73L1.991 73 2.878 45.217 3.944 45.217z"/>
                    <path fill="#FFF" d="M2.761 73L1.991 73 2.878 45.217 3.944 45.217z" opacity=".4"/>
                    <path fill="#15AFC5" d="M9.847 73L10.617 73 9.733 45.217 8.667 45.217z"/>
                    <path fill="#FFF" d="M9.847 73L10.617 73 9.733 45.217 8.667 45.217z" opacity=".4"/>
                    <path fill="#15AFC5" d="M12.901 73L12.131 73 13.018 45.217 14.084 45.217z"/>
                    <path fill="#FFF" d="M12.901 73L12.131 73 13.018 45.217 14.084 45.217z" opacity=".4"/>
                    <path fill="#15AFC5" d="M19.986 73L20.757 73 19.872 45.217 18.806 45.217z"/>
                    <path fill="#FFF" d="M19.986 73L20.757 73 19.872 45.217 18.806 45.217z" opacity=".4"/>
                    <g fill="#15AFC5" opacity=".3">
                        <path d="M.038 0L1.104 0 1.052 1.18 0 1.18zM6.928 1.18L5.875 1.18 5.827 0 6.89 0zM11.241 0L11.192 1.18 10.14 1.18 10.178 0zM17.07 1.18L16.015 1.18 15.966 0 17.032 0z" transform="translate(2.84 45.217)"/>
                    </g>
                </g>
                <g>
                    <path fill="#15AFC5" d="M46.546 33.11H2.875c-.686.007-1.344-.272-1.814-.769s-.709-1.167-.66-1.847L2.069 3.01C2.176 1.55 3.388.415 4.86.393h43.66c.687-.007 1.344.272 1.814.77.47.496.71 1.166.66 1.847l-1.67 27.495c-.111 1.45-1.314 2.579-2.778 2.605z" transform="translate(-370 -807) translate(370 807) translate(59 4)"/>
                    <path fill="#15AFC5" d="M8.718 27.3L12.745 41 24.693 27.3z" transform="translate(-370 -807) translate(370 807) translate(59 4)"/>
                    <path fill="#FFF" d="M44.417 22.051H19.943c-.385.004-.754-.152-1.017-.431-.264-.279-.398-.654-.37-1.036L19.49 5.18c.061-.819.74-1.455 1.566-1.467h24.473c.387-.008.758.147 1.023.426.264.28.397.658.365 1.04l-.935 15.406c-.06.818-.74 1.455-1.565 1.467z" opacity=".1" transform="translate(-370 -807) translate(370 807) translate(59 4)"/>
                    <path fill="#FFF" d="M31.324 28.696H6.847c-.384.003-.752-.153-1.015-.432-.263-.278-.397-.653-.37-1.035l.935-15.405c.06-.817.739-1.454 1.563-1.467h24.476c.386-.007.757.148 1.02.428.265.28.397.657.365 1.039l-.935 15.405c-.06.818-.738 1.454-1.562 1.467z" opacity=".1" transform="translate(-370 -807) translate(370 807) translate(59 4)"/>
                    <g fill="#FFF" opacity=".5">
                        <path d="M1.456.813c-.01.432-.35.784-.782.814-.201-.01-.388-.104-.515-.26-.127-.155-.182-.356-.15-.554C.02.383.359.032.79 0c.201.01.388.104.515.26.127.154.182.356.15.553zM4.126.813c-.012.431-.35.783-.783.814-.201-.01-.389-.103-.517-.259-.127-.155-.182-.357-.15-.555.012-.43.35-.781.782-.813.2.01.388.104.515.26.128.154.183.356.153.553zM6.814.813c-.01.432-.35.784-.782.814-.201-.01-.388-.104-.515-.26-.127-.155-.182-.356-.15-.554.012-.43.35-.781.782-.813.2.01.388.104.515.26.127.154.181.356.15.553z" transform="translate(-370 -807) translate(370 807) translate(59 4) translate(5.066 1.971)"/>
                    </g>
                    <path fill="#263238" d="M46.208 32.855H2.548c-.705.006-1.38-.281-1.863-.792-.482-.51-.728-1.198-.679-1.897L1.675 2.682C1.784 1.186 3.025.022 4.532 0h43.65c.705-.005 1.38.282 1.862.792.483.511.73 1.199.68 1.898l-1.666 27.484c-.11 1.492-1.345 2.654-2.85 2.681zM4.532.138C3.094.156 1.91 1.266 1.806 2.692L.137 30.177c-.049.662.184 1.314.64 1.797.458.484 1.097.756 1.765.749h43.666c1.438-.02 2.622-1.129 2.727-2.555l1.666-27.484c.047-.664-.187-1.317-.647-1.8-.46-.485-1.102-.755-1.772-.746H4.532z" opacity=".3" transform="translate(-370 -807) translate(370 807) translate(59 4)"/>
                    <path fill="#263238" d="M22.566 16.788c-.185.39-.354.724-.545 1.085-.191.36-.382.686-.578 1.025-.401.675-.818 1.355-1.265 1.99-.226.325-.457.648-.693.968-.248.314-.483.634-.747.94-.516.636-1.072 1.237-1.666 1.8-.15.147-.314.272-.472.426-.157.147-.322.284-.496.41l-.523.393-.161.111c-.072.045-.145.086-.221.122-.15.072-.307.126-.47.163-.647.15-1.33.003-1.856-.401-.129-.102-.247-.216-.352-.342l-.073-.098-.036-.048-.013-.022-.05-.087-.196-.352c-.06-.114-.1-.223-.15-.334-.172-.409-.312-.83-.42-1.26-.19-.785-.322-1.58-.398-2.384-.08-.782-.114-1.567-.103-2.353.012-.46.36-.844.819-.904.46-.06.894.223 1.024.665v.033c.361 1.382.808 2.74 1.339 4.067.121.28.262.552.422.813.036.054.071.12.107.165l.103.125.025.033-.014-.022-.03-.04c-.043-.056-.092-.106-.147-.15-.109-.087-.235-.15-.371-.184-.136-.029-.276-.029-.412 0-.07.015-.139.037-.204.068-.036 0-.066.035-.098.051-.033.016-.082.057-.047.027l.341-.33c.115-.104.226-.228.338-.348.112-.119.227-.235.336-.363.899-1.072 1.717-2.208 2.448-3.4.374-.604.742-1.22 1.09-1.843l.527-.939.499-.916.027-.049c.492-.875 1.59-1.21 2.49-.758.9.452 1.282 1.529.867 2.442l.005.005z" transform="translate(-370 -807) translate(370 807) translate(59 4)"/>
                    <path fill="#FFC3BD" d="M11.338 18.42l-1.328-.756 1.429-1.45c.419.308.807.656 1.159 1.038.168.177.242.423.199.663-.043.24-.198.446-.417.554-.335.155-.724.136-1.042-.048zM9.707 16.11l.723-.512c.195-.141.469-.1.613.092l.396.524-1.429 1.45-.45-1.02c-.084-.19-.023-.413.147-.533z" transform="translate(-370 -807) translate(370 807) translate(59 4)"/>
                    <path fill="#FFF" d="M19.706 15.574c.22-.723.829-1.262 1.576-1.397.53-.116 1.066-.197 1.606-.244 1.626-.063 3.255-.034 4.878.087.85.057 1.72.176 2.413.29h.024c.764.126 1.281.843 1.156 1.603-.34 1.957-1.341 5.363-1.45 8.575-.145 4.22-.08 6.648-.153 7.665l-10.92-.209c-.76-10.31.186-14.036.87-16.37z" transform="translate(-370 -807) translate(370 807) translate(59 4)"/>
                    <path fill="#263238" d="M30.495 14.15h-.035c-.731-.119-1.636-.246-2.544-.306l-.486-.027c-.477 1.963-3.32 5.265-4.182 10.27-.333-4.183-.59-8.557-.101-10.262-.772.023-1.542.088-2.307.192-.823.186-1.484.797-1.729 1.6-.67 1.963-1.952 6.36-1.164 17.173h12.136c.08-1.084-.204-3.362.235-6.867.422-3.395 1.03-8.015 1.388-10.078.133-.8-.408-1.557-1.211-1.695z" transform="translate(-370 -807) translate(370 807) translate(59 4)"/>
                    <path fill="#FFF" d="M22.989 32.226c-.038.002-.071-.027-.074-.065-.256-3.05.224-7.429.23-7.475.001-.018.01-.036.026-.047.014-.012.033-.017.052-.015.04.004.069.039.066.079 0 .043-.486 4.41-.23 7.445.003.019-.003.038-.015.053-.013.015-.03.024-.05.025h-.005z" opacity=".2" transform="translate(-370 -807) translate(370 807) translate(59 4)"/>
                    <path fill="#000" d="M30.067 18.442c-.45 2.028-.21 4.837.273 7.4.357-2.877.845-6.61 1.202-8.92-.499-.332-1.118-.098-1.475 1.52z" opacity=".3" transform="translate(-370 -807) translate(370 807) translate(59 4)"/>
                    <path fill="#FFC3BD" d="M23.12 13.92c1.415-.31 1.66-1.177 1.56-2.137-.026-.24-.065-.478-.118-.713l1.767-1.437 1.3-1.052c-.354 1.557-.744 4.395.325 5.455 0 0-.873 1.424-3.3 1.25-2.05-.146-1.534-1.366-1.534-1.366z" transform="translate(-370 -807) translate(370 807) translate(59 4)"/>
                    <path fill="#E0E0E0" d="M25.271 14.928L24.878 15.297 26.132 15.766 25.969 15.292z" transform="translate(-370 -807) translate(370 807) translate(59 4)"/>
                    <path fill="#F5F5F5" d="M26.23 16.428s-.493-1.24-.96-1.502c.918-.218 1.758-.68 2.43-1.337l.745.296s.234 1.437-2.214 2.543z" transform="translate(-370 -807) translate(370 807) translate(59 4)"/>
                    <path fill="#E0E0E0" d="M24.584 14.831L24.878 15.297 23.559 15.411 23.823 14.996z" transform="translate(-370 -807) translate(370 807) translate(59 4)"/>
                    <path fill="#F5F5F5" d="M22.896 16.078c.484-.512 1.055-.935 1.688-1.247-.717-.212-.761-1.193-.761-1.193l-.695.133s-1.276 1.233-.232 2.307z" transform="translate(-370 -807) translate(370 807) translate(59 4)"/>
                    <path fill="#000" d="M24.562 11.068c.053.236.092.475.117.715.66-.119 1.543-.813 1.636-1.477.031-.223.038-.449.02-.673l-1.773 1.435z" opacity=".2" transform="translate(-370 -807) translate(370 807) translate(59 4)"/>
                    <path fill="#263238" d="M22.416 3.972c-.632.773-.572 3.568.766 3.6 1.34.033.385-5.01-.766-3.6z" transform="translate(-370 -807) translate(370 807) translate(59 4)"/>
                    <path fill="#FFC3BD" d="M28.183 6.006c-.134 2.117-.106 3.362-1.18 4.457-1.615 1.646-4.232.7-4.737-1.407-.45-1.898-.155-5.04 1.925-5.9.924-.393 1.988-.277 2.804.306.816.582 1.267 1.547 1.188 2.544z" transform="translate(-370 -807) translate(370 807) translate(59 4)"/>
                    <path fill="#263238" d="M27.136 4.243c-1.339 1.32.4 2.289-.273 2.999 1.263.656.8 1.139.8 1.139-.132.36-.132.756 0 1.117 1.422-.364 4.064-5.065 1.18-5.786-1.726.764-1.707.531-1.707.531z" transform="translate(-370 -807) translate(370 807) translate(59 4)"/>
                    <path fill="#263238" d="M27.684 5.192c-1.268.195-2.863-.406-3.853-.916-.99-.51-1.134.453-.769.745-.635.022-1.44-.477-1.24-1.591.182-1.017 1.521-1.98 3.427-1.12 1.35.607 3.013-.192 3.662.51s-.382 2.24-1.227 2.372z" transform="translate(-370 -807) translate(370 807) translate(59 4)"/>
                    <path fill="#263238" d="M28.551 3.812c.85-.111.886-.645.649-1.58.919 1.298.545 1.697 0 2.011-.608-.203-.649-.43-.649-.43z" transform="translate(-370 -807) translate(370 807) translate(59 4)"/>
                    <path fill="#FFC3BD" d="M28.755 7.63c-.188.414-.517.749-.93.946-.526.236-.793-.247-.651-.813.128-.513.545-1.25 1.09-1.245.546.005.729.588.491 1.112z" transform="translate(-370 -807) translate(370 807) translate(59 4)"/>
                    <path fill="#263238" d="M24.86 6.645c0 .171-.094.312-.205.315-.112.003-.194-.138-.194-.315 0-.176.093-.311.205-.311.111 0 .193.138.193.311zM22.907 6.662c0 .173-.093.312-.207.314-.115.003-.205-.138-.202-.312.003-.173.09-.311.204-.311.115 0 .205.138.205.309z" transform="translate(-370 -807) translate(370 807) translate(59 4)"/>
                    <path fill="#ED847E" d="M23.643 6.721c-.204.528-.479 1.026-.818 1.48.238.167.537.221.818.15V6.72z" transform="translate(-370 -807) translate(370 807) translate(59 4)"/>
                    <path fill="#263238" d="M24.33 8.814c.4-.044.763-.254 1-.577.01-.015.012-.034.003-.05-.008-.016-.024-.026-.042-.027-.018 0-.035.008-.045.023-.266.345-.68.546-1.118.542-.013 0-.026.006-.035.015-.01.01-.014.023-.014.037 0 .013.006.026.016.035.01.01.023.014.036.013.071-.01.136-.01.2-.01zM25.805 5.96c.017-.001.034-.008.047-.02.022-.015.036-.04.04-.066.003-.027-.004-.054-.021-.074-.19-.26-.495-.414-.818-.413-.027.002-.051.015-.068.036-.017.02-.025.047-.022.073.006.056.055.098.112.095.257-.003.498.121.646.33.02.026.052.04.084.039zM22.116 6.044c.033-.005.062-.025.077-.055.105-.238.32-.411.575-.466.027-.003.052-.016.068-.038.016-.022.022-.05.016-.076-.01-.054-.06-.092-.114-.087-.323.064-.595.278-.73.575-.025.05-.004.11.045.136.02.009.042.013.063.01zM32.03 15.376c.333.697.61 1.355.884 2.033.272.678.515 1.37.758 2.06.476 1.41.86 2.848 1.15 4.306.063.377.134.746.18 1.134l.036.287.019.144v.173c.027.28.027.563 0 .843-.063.614-.276 1.203-.62 1.717-.321.47-.744.864-1.237 1.152-.411.24-.853.422-1.314.542-.41.112-.83.186-1.255.223-.8.075-1.605.043-2.396-.095-.443-.074-.77-.45-.783-.895-.012-.446.296-.838.734-.935l.098-.022c.272-.063.63-.138.935-.22.305-.081.616-.176.905-.27.505-.162.973-.42 1.377-.76.107-.099.188-.221.237-.358.02-.096.02-.194 0-.29-.009-.073-.023-.146-.04-.217l-.099-.442c-.062-.309-.152-.629-.234-.943-.17-.638-.36-1.275-.578-1.915-.218-.64-.442-1.277-.68-1.914-.236-.637-.487-1.274-.74-1.898-.254-.623-.522-1.28-.775-1.873v-.027c-.425-.942-.001-2.048.946-2.47.947-.422 2.06-.001 2.484.94l.008-.01z" transform="translate(-370 -807) translate(370 807) translate(59 4)"/>
                    <path fill="#FFC3BD" d="M27.373 28.845l-1.202.575 2.077.735s1.385-.44.715-1.204l-.374-.116c-.6-.196-.894-.174-1.216.01z" transform="translate(-370 -807) translate(370 807) translate(59 4)"/>
                    <path fill="#FFC3BD" d="M26.332 30.879l.913.173c.267.05.537-.076.67-.311l.333-.594-2.077-.727-.273.567c-.086.173-.086.377-.002.55.085.175.245.3.436.342z" transform="translate(-370 -807) translate(370 807) translate(59 4)"/>
                </g>
            </g>
        </g>
    </g>
</svg>
