<svg width="18" height="18" viewBox="0 0 18 18" fill="none" xmlns="http://www.w3.org/2000/svg">
<path fill-rule="evenodd" clip-rule="evenodd" d="M12 6C12 6.55228 12.451 7 13.0043 7H16.9957C17.2754 7 17.5249 6.88783 17.7057 6.70675C17.8882 6.52679 18 6.27736 18 6L17.9973 1.92932C17.9594 1.40968 17.5309 1 17 1C16.4477 1 16 1.45098 16 2.00427V3.4366C14.1555 1.16101 11.861 0 9 0C4.02944 0 0 4.02944 0 9C0 13.9706 4.02944 18 9 18C13.5523 18 17.3724 14.6022 17.9305 10.1228C17.9988 9.57477 17.6099 9.07513 17.0618 9.00685C16.5138 8.93857 16.0142 9.32749 15.9459 9.87554C15.5121 13.3567 12.5403 16 9 16C5.13401 16 2 12.866 2 9C2 5.13401 5.13401 2 9 2C11.3334 2 13.159 2.96688 14.6855 5H13.0043C12.4496 5 12 5.44386 12 6ZM9 5C8.44386 5 8 5.44763 8 5.99981V9H6.99905C6.44335 9 6 9.44772 6 10C6 10.5561 6.44729 11 6.99905 11H9.00095C9.55665 11 10 10.5523 10 10V5.99981C10 5.44372 9.55228 5 9 5Z" fill="#667074"/>
</svg>
