<svg width="20" height="20" viewBox="0 0 20 20" fill="none" xmlns="http://www.w3.org/2000/svg">
<path fill-rule="evenodd" clip-rule="evenodd" d="M2 14.9905V16.3468C2.34998 16.5603 5.14618 17.997 10 17.997C14.8538 17.997 17.6504 16.5619 18 16.3484V14.9905C18 13.2744 14.193 11.9397 13.9216 11.8376C13.07 13.3659 11.8111 14.5 10 14.5C8.18988 14.5 6.93131 13.3671 6.07978 11.84C5.81115 11.9409 2 13.2709 2 14.9905ZM4.5 5.17865C4.5 2.31856 6.96243 0 10 0C13.0376 0 15.5 2.31856 15.5 5.17865C15.5 6.39233 15.288 8.2545 14.7136 9.99622C16.7165 10.7614 20 12.0007 20 14.9905V16.9976C20 18.1027 15.6849 20 10 20C4.31506 20 0 18.0989 0 16.9976V14.9905C0 11.9904 3.28531 10.7625 5.28723 9.99879C4.7122 8.25633 4.5 6.39293 4.5 5.17865ZM10 12.5C11.9696 12.5 13.5 8.88263 13.5 5.17865C13.5 3.45095 11.959 2 10 2C8.04098 2 6.5 3.45095 6.5 5.17865C6.5 8.88263 8.03042 12.5 10 12.5Z" fill="#667074"/>
</svg>
