<svg width="20" height="20" viewBox="0 0 20 20" fill="none" xmlns="http://www.w3.org/2000/svg">
<path fill-rule="evenodd" clip-rule="evenodd" d="M10 20C4.47715 20 0 15.5228 0 10C0 4.47715 4.47715 0 10 0C15.5228 0 20 4.47715 20 10C20 15.5228 15.5228 20 10 20ZM10 18C14.4183 18 18 14.4183 18 10C18 5.58172 14.4183 2 10 2C5.58172 2 2 5.58172 2 10C2 14.4183 5.58172 18 10 18ZM10 6C8.89543 6 8 6.89543 8 8C8 8.55228 7.55228 9 7 9C6.44772 9 6 8.55228 6 8C6 5.79086 7.79086 4 10 4C12.2317 4 14.0061 5.60488 14.0061 7.7981C14.0061 8.99642 13.5855 9.73024 12.6873 10.5033C12.595 10.5826 11.5555 11.4266 11.5167 11.4576C11.1002 11.7907 11.013 11.9413 11.013 12.4391C11.013 12.9914 10.5653 13.4391 10.013 13.4391C9.46072 13.4391 9.013 12.9914 9.013 12.4391C9.013 11.269 9.41226 10.5796 10.2677 9.89561C10.2342 9.92241 11.3076 9.05191 11.3826 8.98736C11.8771 8.56178 12.0061 8.33678 12.0061 7.7981C12.0061 6.75673 11.1695 6 10 6ZM10 16C9.44772 16 9 15.5523 9 15C9 14.4477 9.44772 14 10 14C10.5523 14 11 14.4477 11 15C11 15.5523 10.5523 16 10 16Z" fill="#667074"/>
</svg>
