<svg width="20" height="21" viewBox="0 0 20 21" fill="none" xmlns="http://www.w3.org/2000/svg">
<path fill-rule="evenodd" clip-rule="evenodd" d="M10 0C15.5228 0 20 4.47715 20 10C20 11.5081 19.6661 12.9383 19.0683 14.2206L19.9456 18.4204C20.1717 19.5028 19.4818 20.1948 18.4008 19.9652L14.2068 19.0747C12.928 19.6685 11.5027 20 10 20C4.47715 20 0 15.5228 0 10C0 4.47715 4.47715 0 10 0ZM10 2C5.58172 2 2 5.58172 2 10C2 14.4183 5.58172 18 10 18C11.1802 18 12.3204 17.7456 13.3645 17.2608L13.9696 16.9798L17.7713 17.7926L16.9746 13.9784L17.2556 13.3755C17.7438 12.3285 18 11.1844 18 10C18 5.58172 14.4183 2 10 2Z" fill="#4B5153"/>
</svg>
