<svg id="feed-image-active-1" width="20" height="20" viewBox="0 0 20 20" xmlns="http://www.w3.org/2000/svg">
    <path d="M2.895 7.917a.828.828 0 0 1-.827-.834c0-.46.367-.833.827-.833h.827c5.483 0 9.927 4.477 9.927 10v.833a.828.828 0 1 1-1.655 0v-.833c0-4.602-3.703-8.333-8.272-8.333h-.827zm0 4.166a.828.828 0 0 1-.827-.833c0-.46.367-.833.827-.833h.827c3.198 0 5.79 2.611 5.79 5.833v.833a.828.828 0 1 1-1.654 0v-.833c0-2.301-1.851-4.167-4.136-4.167h-.827zm14.89 5a.828.828 0 1 1-1.654 0v-.833c0-6.904-5.556-12.5-12.409-12.5h-.827a.828.828 0 0 1-.827-.833c0-.46.367-.834.827-.834h.827c7.767 0 14.063 6.343 14.063 14.167v.833zm-14.063.834a1.66 1.66 0 0 1-1.654-1.667c0-.92.74-1.667 1.654-1.667a1.66 1.66 0 0 1 1.655 1.667c0 .92-.74 1.667-1.655 1.667z" fill="currentColor" fill-rule="evenodd"/>
</svg>
