<svg id="files-image-active-1" width="18" height="22" viewBox="0 0 18 22" xmlns="http://www.w3.org/2000/svg">
    <g fill="none" fill-rule="evenodd">
        <path d="M9.045.87h-6a2.255 2.255 0 0 0-2.25 2.25v12a2.249 2.249 0 0 0 2.25 2.25h9a2.249 2.249 0 0 0 2.25-2.25v-9a.75.75 0 0 0-.22-.53l-4.5-4.5a.75.75 0 0 0-.53-.22zm-.312 1.499 4.062 4.062v8.689c0 .415-.335.75-.75.75h-9a.749.749 0 0 1-.75-.75v-12c0-.41.34-.75.75-.75l5.688-.001z" fill="currentColor" fill-rule="nonzero"/>
        <path d="M9.045.87a.75.75 0 0 1 .743.648l.007.102v3.749l3.75.001a.75.75 0 0 1 .743.648l.007.102a.75.75 0 0 1-.648.743l-.102.007h-4.5a.75.75 0 0 1-.743-.648l-.007-.102v-4.5a.75.75 0 0 1 .75-.75zM10.545 9.12a.75.75 0 0 1 .102 1.493l-.102.007h-6a.75.75 0 0 1-.101-1.493l.101-.007h6zM10.545 12.12a.75.75 0 0 1 .102 1.493l-.102.007h-6a.75.75 0 0 1-.101-1.493l.101-.007h6zM6.045 6.12a.75.75 0 0 1 .102 1.493l-.102.007h-1.5a.75.75 0 0 1-.101-1.493l.101-.007h1.5z" fill="currentColor" fill-rule="nonzero"/>
        <path d="M11.955 5.37h-6c-.829 0-1.5.68-1.5 1.5v12c0 .83.671 1.5 1.5 1.5h9c.828 0 1.5-.67 1.5-1.5v-9l-4.5-4.5z" fill="#FFF"/>
        <path d="M11.955 4.62h-6a2.255 2.255 0 0 0-2.25 2.25v12a2.249 2.249 0 0 0 2.25 2.25h9a2.249 2.249 0 0 0 2.25-2.25v-9a.75.75 0 0 0-.22-.53l-4.5-4.5a.75.75 0 0 0-.53-.22zm-.312 1.499 4.061 4.061v8.69c0 .415-.334.75-.75.75h-9a.749.749 0 0 1-.75-.75v-12c0-.41.34-.75.75-.75l5.689-.001z" fill="currentColor" fill-rule="nonzero"/>
        <path d="M11.955 4.62a.75.75 0 0 1 .743.648l.007.102-.001 3.749 3.75.001a.75.75 0 0 1 .744.648l.007.102a.75.75 0 0 1-.649.743l-.101.007h-4.5a.75.75 0 0 1-.743-.648l-.007-.102v-4.5a.75.75 0 0 1 .75-.75zM13.455 12.87a.75.75 0 0 1 .101 1.493l-.101.007h-6a.75.75 0 0 1-.102-1.493l.102-.007h6zM13.455 15.87a.75.75 0 0 1 .101 1.493l-.101.007h-6a.75.75 0 0 1-.102-1.493l.102-.007h6zM8.955 9.87a.75.75 0 0 1 .101 1.493l-.101.007h-1.5a.75.75 0 0 1-.102-1.493l.102-.007h1.5z" fill="currentColor" fill-rule="nonzero"/>
    </g>
</svg>
