<svg id="forms-image-active-1" width="20" height="20" viewBox="0 0 20 20" xmlns="http://www.w3.org/2000/svg">
    <path d="M13.235.833c.457 0 .828.37.828.833h1.653a1.66 1.66 0 0 1 1.655 1.667v13.334c0 .92-.739 1.666-1.655 1.666H4.136a1.66 1.66 0 0 1-1.654-1.666V3.333c0-.92.739-1.666 1.655-1.666H5.79a.828.828 0 1 1 1.655-.001h1.654a.828.828 0 1 1 1.655 0h1.654c0-.46.367-.833.827-.833zm-2.481 2.5a.828.828 0 1 1-1.655.001l-1.654-.001a.828.828 0 1 1-1.655.001H4.136v13.333h11.58V3.333h-1.653a.828.828 0 1 1-1.655.001 791.67 791.67 0 0 0-1.654-.001zm-.828 4.584c0-.46.374-.834.831-.834h3.302c.459 0 .83.37.83.834 0 .46-.372.833-.83.833h-3.302a.83.83 0 0 1-.83-.833zm0 4.583c0-.46.374-.833.831-.833h3.302a.833.833 0 0 1 0 1.667h-3.302a.83.83 0 0 1-.83-.834zM6.033 8.506l-.827-.833a.838.838 0 0 1 0-1.179.823.823 0 0 1 1.17 0l.242.244 1.07-1.077a.823.823 0 0 1 1.169 0 .838.838 0 0 1 0 1.178L7.203 8.506a.823.823 0 0 1-1.17 0zm0 4.583-.827-.833a.838.838 0 0 1 0-1.179.823.823 0 0 1 1.17 0l.243.246 1.068-1.079a.823.823 0 0 1 1.17 0 .838.838 0 0 1 0 1.179l-1.654 1.666a.823.823 0 0 1-1.17 0z" fill="currentColor" fill-rule="evenodd"/>
</svg>
