<svg id="images-image-active-1" width="16" height="16" viewBox="0 0 16 16" xmlns="http://www.w3.org/2000/svg">
    <path d="M12.75.5a2.753 2.753 0 0 1 2.75 2.75v9.5a2.753 2.753 0 0 1-2.75 2.75h-9.5c-.114 0-.227-.007-.337-.02a.739.739 0 0 1-.61-.127l-.045-.038A2.755 2.755 0 0 1 .5 12.75v-9.5A2.753 2.753 0 0 1 3.25.5zM11 7.561 4.56 14h8.19c.645 0 1.18-.495 1.244-1.123L14 12.75v-2.189l-3-3zM12.75 2h-9.5C2.562 2 2 2.563 2 3.25v9.5c0 .456.247.857.614 1.075L10.47 5.97a.75.75 0 0 1 .976-.073l.084.073L14 8.439V3.25c0-.644-.494-1.18-1.123-1.244L12.75 2zM5.375 3.5c1.035 0 1.875.835 1.875 1.87a1.874 1.874 0 1 1-3.75 0c0-1.035.84-1.87 1.875-1.87zm0 1.5A.372.372 0 0 0 5 5.37c0 .214.166.38.375.38a.374.374 0 0 0 .375-.38.372.372 0 0 0-.375-.37z" fill="currentColor" fill-rule="nonzero"/>
</svg>
