<svg width="20" height="20" viewBox="0 0 20 20" xmlns="http://www.w3.org/2000/svg">
    <path d="M10.754 12.917h.413c.457 0 .827.37.827.833 0 .46-.367.833-.827.833H8.686a.828.828 0 0 1-.828-.833c0-.46.368-.833.828-.833h.413v-2.5h-.41a.83.83 0 0 1-.83-.834c0-.46.366-.833.83-.833h1.235a.828.828 0 0 1 .83.833v3.334zm-.828 5.416c-4.568 0-8.272-3.73-8.272-8.333 0-4.602 3.704-8.333 8.272-8.333 4.569 0 8.273 3.73 8.273 8.333 0 4.602-3.704 8.333-8.273 8.333zm0-1.666c3.655 0 6.618-2.985 6.618-6.667s-2.963-6.667-6.618-6.667C6.272 3.333 3.31 6.318 3.31 10s2.963 6.667 6.617 6.667zm0-8.75c-.685 0-1.24-.56-1.24-1.25s.555-1.25 1.24-1.25c.686 0 1.241.56 1.241 1.25s-.555 1.25-1.24 1.25z" fill="#667074" fill-rule="evenodd"/>
</svg>
