<svg width="20" height="20" viewBox="0 0 20 20" xmlns="http://www.w3.org/2000/svg">
    <path d="M9.1 3.333H4.96l.003 13.334h9.925l.002-7.5H9.926a.83.83 0 0 1-.827-.834v-5zM10.753 7.5h4.136l-4.136-4.167V7.5zM4.959 1.667h6.045c.228 0 .545.133.704.292l4.546 4.582c.16.161.29.482.29.708v9.418c0 .92-.74 1.666-1.656 1.666H4.965a1.663 1.663 0 0 1-1.656-1.666V3.333c0-.92.74-1.666 1.65-1.666zm.831 12.5a.83.83 0 0 1 .824-.834h6.625c.455 0 .823.37.823.834a.83.83 0 0 1-.823.833H6.614a.826.826 0 0 1-.824-.833zm0-2.5c0-.46.373-.834.831-.834h3.302c.459 0 .83.37.83.834 0 .46-.372.833-.83.833H6.62a.83.83 0 0 1-.83-.833z" fill="#667074" fill-rule="evenodd"/>
</svg>
