<svg width="15" height="15" viewBox="0 0 17 20" fill="none" xmlns="http://www.w3.org/2000/svg">
<path d="M8 0C12.4183 0 16 3.58172 16 8C16 10.9214 14.6551 13.7882 12.4593 16.3943C10.8413 18.3146 8.80219 20 8 20C7.19781 20 5.15867 18.3146 3.54069 16.3943C1.34486 13.7882 0 10.9214 0 8C0 3.58172 3.58172 0 8 0ZM8 2C4.68629 2 2 4.68629 2 8C2 10.3746 3.1507 12.8275 5.07016 15.1057C5.7941 15.9649 6.58679 16.7445 7.32443 17.3542C7.34297 17.3695 7.36184 17.385 7.38091 17.4004L7.49695 17.4933C7.74987 17.6929 8 17.8744 8 17.8744C8 17.8744 8.42138 17.5643 8.67557 17.3542C9.41321 16.7445 10.2059 15.9649 10.9298 15.1057C12.8493 12.8275 14 10.3746 14 8C14 4.68629 11.3137 2 8 2ZM8 5C9.65685 5 11 6.34315 11 8C11 9.65685 9.65685 11 8 11C6.34315 11 5 9.65685 5 8C5 6.34315 6.34315 5 8 5ZM8 7C7.44772 7 7 7.44772 7 8C7 8.55228 7.44772 9 8 9C8.55228 9 9 8.55228 9 8C9 7.44772 8.55228 7 8 7Z" fill="#667074"/>
</svg>
