<svg width="15" height="15" viewBox="0 0 15 15" fill="none" xmlns="http://www.w3.org/2000/svg">
<path fill-rule="evenodd" clip-rule="evenodd" d="M7.00016 0.333008C10.6821 0.333008 13.6668 3.31778 13.6668 6.99967C13.6668 8.00509 13.4443 8.95853 13.0457 9.8134L13.6306 12.6133C13.7813 13.3348 13.3213 13.7962 12.6007 13.6432L9.8047 13.0495C8.95219 13.4454 8.00198 13.6663 7.00016 13.6663C3.31826 13.6663 0.333496 10.6816 0.333496 6.99967C0.333496 3.31778 3.31826 0.333008 7.00016 0.333008ZM7.00016 1.66634C4.05464 1.66634 1.66683 4.05416 1.66683 6.99967C1.66683 9.94519 4.05464 12.333 7.00016 12.333C7.78695 12.333 8.54713 12.1634 9.24315 11.8402L9.64655 11.6529L12.181 12.1947L11.6499 9.65194L11.8373 9.25C12.1627 8.55201 12.3335 7.78924 12.3335 6.99967C12.3335 4.05416 9.94568 1.66634 7.00016 1.66634ZM7.00016 5.99967C7.55245 5.99967 8.00016 6.44739 8.00016 6.99967C8.00016 7.55196 7.55245 7.99967 7.00016 7.99967C6.44788 7.99967 6.00016 7.55196 6.00016 6.99967C6.00016 6.44739 6.44788 5.99967 7.00016 5.99967ZM4.3335 5.99967C4.88578 5.99967 5.3335 6.44739 5.3335 6.99967C5.3335 7.55196 4.88578 7.99967 4.3335 7.99967C3.78121 7.99967 3.3335 7.55196 3.3335 6.99967C3.3335 6.44739 3.78121 5.99967 4.3335 5.99967ZM9.66683 5.99967C10.2191 5.99967 10.6668 6.44739 10.6668 6.99967C10.6668 7.55196 10.2191 7.99967 9.66683 7.99967C9.11454 7.99967 8.66683 7.55196 8.66683 6.99967C8.66683 6.44739 9.11454 5.99967 9.66683 5.99967Z" fill="#667074"/>
</svg>
