<?xml version="1.0" encoding="UTF-8"?>
<svg width="175px" height="121px" viewBox="0 0 175 121" version="1.1" xmlns="http://www.w3.org/2000/svg" xmlns:xlink="http://www.w3.org/1999/xlink">
    <title>829B18B1-CDA9-4914-83D0-2EC304D04888</title>
    <g id="Page-1" stroke="none" stroke-width="1" fill="none" fill-rule="evenodd">
        <g id="Events" transform="translate(-351.000000, -798.000000)" fill-rule="nonzero">
            <g id="Women-day-rafiki" transform="translate(351.000000, 798.000000)">
                <g id="freepik--background-complete--inject-34">
                    <rect id="Rectangle" fill="#EBEBEB" x="0" y="114.295689" width="174.550532" height="1"></rect>
                    <rect id="Rectangle" fill="#EBEBEB" x="138.533776" y="119.912725" width="18.5267935" height="1"></rect>
                    <rect id="Rectangle" fill="#EBEBEB" x="95.1509862" y="118.820038" width="20.4782685" height="1"></rect>
                    <rect id="Rectangle" fill="#EBEBEB" x="132.728225" y="118.317333" width="6.69924943" height="1"></rect>
                    <rect id="Rectangle" fill="#EBEBEB" x="35.074184" y="117.259557" width="15.077675" height="1"></rect>
                    <rect id="Rectangle" fill="#EBEBEB" x="27.7395706" y="117.259557" width="5.39012044" height="1"></rect>
                    <rect id="Rectangle" fill="#EBEBEB" x="45.896317" y="118.732763" width="18.9212777" height="1"></rect>
                    <path d="M82.7369523,98.7257811 L15.3290278,98.7257811 C14.2294851,98.7238555 13.3391517,97.8319584 13.3391517,96.732414 L13.3391517,1.97591203 C13.348719,0.883187921 14.2362634,0.00187189378 15.3290278,4.96102451e-15 L82.7369523,4.96102451e-15 C83.8378586,4.96102451e-15 84.7303194,0.892460841 84.7303194,1.99336708 L84.7303194,96.732414 C84.7303194,97.8333203 83.8378586,98.7257811 82.7369523,98.7257811 Z M15.3290278,0.069820213 C14.2776859,0.0717457507 13.426427,0.924568405 13.426427,1.97591203 L13.426427,96.732414 C13.426427,97.7837577 14.2776859,98.6365803 15.3290278,98.6385058 L82.7369523,98.6385058 C83.7888609,98.6365845 84.6411229,97.7843226 84.6430442,96.732414 L84.6430442,1.97591203 C84.6411229,0.924003442 83.7888609,0.071741512 82.7369523,0.069820213 L15.3290278,0.069820213 Z" id="Shape" fill="#EBEBEB"></path>
                    <path d="M158.251004,98.7257811 L90.8395881,98.7257811 C89.7394788,98.7238595 88.8481426,97.8325233 88.846221,96.732414 L88.846221,1.97591203 C88.8576881,0.882625365 89.7462428,0.00185130985 90.8395881,0 L158.251004,0 C159.342406,0.00378101305 160.227838,0.884544478 160.237389,1.97591203 L160.237389,96.732414 C160.237389,97.8305994 159.349182,98.7219346 158.251004,98.7257811 Z M90.8395881,0.069820213 C89.7876795,0.071741512 88.9354175,0.924003442 88.9334962,1.97591203 L88.9334962,96.732414 C88.9354175,97.7843226 89.7876795,98.6365845 90.8395881,98.6385058 L158.251004,98.6385058 C159.302912,98.6365845 160.155174,97.7843226 160.157095,96.732414 L160.157095,1.97591203 C160.155174,0.924003442 159.302912,0.071741512 158.251004,0.069820213 L90.8395881,0.069820213 Z" id="Shape" fill="#EBEBEB"></path>
                    <rect id="Rectangle" fill="#E6E6E6" transform="translate(49.951126, 32.105079) rotate(180.000000) translate(-49.951126, -32.105079) " x="32.9900506" y="10.3787747" width="33.9221505" height="43.4526095"></rect>
                    <rect id="Rectangle" fill="#F0F0F0" transform="translate(48.865422, 32.105079) rotate(180.000000) translate(-48.865422, -32.105079) " x="31.1642521" y="10.3787747" width="35.402339" height="43.4526095"></rect>
                    <polygon id="Rectangle" fill="#FFFFFF" transform="translate(48.861931, 32.108570) rotate(90.000000) translate(-48.861931, -32.108570) " points="28.7694187 16.0411939 68.9544423 16.0411939 68.9544423 48.1759469 28.7694187 48.1759469"></polygon>
                    <polygon id="Path" fill="#F5F5F5" points="49.3209984 52.1975912 42.8626287 12.0125676 37.4899633 12.0125676 43.944842 52.1975912"></polygon>
                    <polygon id="Path" fill="#F5F5F5" points="53.8209112 52.1975912 47.3660325 12.0125676 45.0130913 12.0125676 51.471461 52.1975912"></polygon>
                    <polygon id="Rectangle" fill="#E6E6E6" transform="translate(32.897539, 32.108570) rotate(90.000000) translate(-32.897539, -32.108570) " points="12.8050271 32.0090766 52.9900506 32.0090766 52.9900506 32.2080642 12.8050271 32.2080642"></polygon>
                    <rect id="Rectangle" fill="#E6E6E6" transform="translate(125.016582, 33.311224) rotate(180.000000) translate(-125.016582, -33.311224) " x="97.8530285" y="10.1902601" width="54.3271077" height="46.241927"></rect>
                    <rect id="Rectangle" fill="#F0F0F0" transform="translate(123.716181, 33.311224) rotate(180.000000) translate(-123.716181, -33.311224) " x="96.079595" y="10.1902601" width="55.2731716" height="46.241927"></rect>
                    <rect id="Rectangle" fill="#E6E6E6" transform="translate(125.016582, 58.076453) rotate(180.000000) translate(-125.016582, -58.076453) " x="97.8530285" y="56.4286961" width="54.3271077" height="3.29551405"></rect>
                    <rect id="Rectangle" fill="#F0F0F0" transform="translate(120.759295, 58.076453) rotate(180.000000) translate(-120.759295, -58.076453) " x="93.122709" y="56.4286961" width="55.2731716" height="3.29551405"></rect>
                    <polygon id="Rectangle" fill="#FAFAFA" transform="translate(123.712690, 33.311224) rotate(90.000000) translate(-123.712690, -33.311224) " points="103.073835 8.15674638 144.351545 8.15674638 144.351545 58.4657008 103.073835 58.4657008"></polygon>
                    <polygon id="Path" fill="#FFFFFF" points="116.840635 53.9465875 112.864374 12.6723687 105.987083 12.6723687 109.963344 53.9465875"></polygon>
                    <path d="M147.718625,39.9546169 C147.822738,39.9546169 147.907139,39.870216 147.907139,39.7661023 L147.907139,14.2817246 C147.907139,14.1776109 147.822738,14.09321 147.718625,14.09321 C147.614511,14.09321 147.53011,14.1776109 147.53011,14.2817246 L147.53011,39.7661023 C147.53011,39.8160995 147.549971,39.8640489 147.585325,39.8994022 C147.620678,39.9347556 147.668627,39.9546169 147.718625,39.9546169 Z" id="Path" fill="#F0F0F0"></path>
                    <polygon id="Path" fill="#FFFFFF" points="108.486647 53.9465875 104.510386 12.6723687 101.82929 12.6723687 105.805551 53.9465875"></polygon>
                    <polygon id="Rectangle" fill="#E6E6E6" transform="translate(98.718799, 33.311224) rotate(90.000000) translate(-98.718799, -33.311224) " points="78.0799441 33.1541281 119.357654 33.1541281 119.357654 33.4683191 78.0799441 33.4683191"></polygon>
                    <polygon id="Path" fill="#E0E0E0" opacity="0.5" points="95.4896142 17.1722814 149.816722 17.1722814 150.047129 13.6358876 95.7200209 13.6358876"></polygon>
                    <polygon id="Path" fill="#E0E0E0" opacity="0.5" points="95.4896142 22.9848141 149.816722 22.9848141 150.047129 19.4484203 95.7200209 19.4484203"></polygon>
                    <polygon id="Path" fill="#E0E0E0" opacity="0.5" points="95.4896142 28.7973468 149.816722 28.7973468 150.047129 25.260953 95.7200209 25.260953"></polygon>
                    <polygon id="Path" fill="#E0E0E0" opacity="0.5" points="95.4896142 34.6098796 149.816722 34.6098796 150.047129 31.0734858 95.7200209 31.0734858"></polygon>
                    <polygon id="Path" fill="#E0E0E0" opacity="0.5" points="95.4896142 40.4224123 149.816722 40.4224123 150.047129 36.8860185 95.7200209 36.8860185"></polygon>
                    <polygon id="Path" fill="#E0E0E0" opacity="0.5" points="95.4896142 46.234945 149.816722 46.234945 150.047129 42.6985512 95.7200209 42.6985512"></polygon>
                    <path d="M118.191656,91.8310351 C118.159949,91.6773645 118.023892,91.5676414 117.866992,91.5691927 L105.299354,91.5691927 C105.142454,91.5676414 105.006398,91.6773645 104.97469,91.8310351 L100.513179,114.295689 L101.190435,114.295689 L105.568162,92.2290103 L117.598185,92.2290103 L121.975912,114.295689 L122.649677,114.295689 L118.191656,91.8310351 Z" id="Path" fill="#F0F0F0"></path>
                    <path d="M142.534474,91.8310351 C142.502766,91.6773645 142.36671,91.5676414 142.20981,91.5691927 L129.642171,91.5691927 C129.485272,91.5676414 129.349215,91.6773645 129.317507,91.8310351 L124.852505,114.295689 L125.529761,114.295689 L129.907488,92.2290103 L141.937511,92.2290103 L146.315238,114.295689 L146.992494,114.295689 L142.534474,91.8310351 Z" id="Path" fill="#F0F0F0"></path>
                    <path d="M142.890557,89.0556816 L103.35137,89.0556816 C101.462733,89.0556816 99.9301798,89.9633444 99.9301798,91.0874498 L99.9301798,91.15727 C99.9301798,91.5657183 100.488741,91.8973643 101.179962,91.8973643 L145.065456,91.8973643 C145.763659,91.8973643 146.311747,91.5657183 146.311747,91.15727 L146.311747,91.0874498 C146.311747,89.9633444 144.779194,89.0556816 142.890557,89.0556816 Z" id="Path" fill="#E0E0E0"></path>
                    <polygon id="Path" fill="#E6E6E6" points="145.313318 72.7631349 119.169139 72.7631349 115.377902 88.200384 141.522081 88.200384"></polygon>
                    <polygon id="Path" fill="#E6E6E6" points="141.522081 88.200384 141.41735 89.0556816 115.273172 89.0556816 115.377902 88.200384"></polygon>
                    <polygon id="Path" fill="#F0F0F0" points="144.506895 72.7631349 118.362716 72.7631349 114.574969 88.200384 140.719148 88.200384"></polygon>
                    <polygon id="Path" fill="#FFFFFF" points="140.164078 87.4951999 143.609705 73.4683191 118.917787 73.4683191 115.472159 87.4951999"></polygon>
                    <polygon id="Path" fill="#F0F0F0" points="133.904695 88.200384 133.799965 89.0556816 105.0096 89.0556816 105.114331 88.200384"></polygon>
                    <rect id="Rectangle" fill="#E6E6E6" x="70.6091814" y="91.3876767" width="8.97538837" height="1.98987607"></rect>
                    <rect id="Rectangle" fill="#E6E6E6" transform="translate(27.270030, 91.417350) rotate(180.000000) translate(-27.270030, -91.417350) " x="26.4409146" y="68.539012" width="1.65823006" height="45.7566766"></rect>
                    <rect id="Rectangle" fill="#F5F5F5" transform="translate(45.655437, 92.382615) rotate(180.000000) translate(-45.655437, -92.382615) " x="20.7016931" y="91.3876767" width="49.9074882" height="1.98987607"></rect>
                    <rect id="Rectangle" fill="#E6E6E6" x="70.6091814" y="102.269157" width="8.97538837" height="1.98987607"></rect>
                    <rect id="Rectangle" fill="#F5F5F5" transform="translate(45.655437, 103.260604) rotate(180.000000) translate(-45.655437, -103.260604) " x="20.7016931" y="102.265666" width="49.9074882" height="1.98987607"></rect>
                    <rect id="Rectangle" fill="#E6E6E6" x="70.6091814" y="69.6282074" width="8.97538837" height="1.98987607"></rect>
                    <rect id="Rectangle" fill="#F5F5F5" transform="translate(45.655437, 70.619654) rotate(180.000000) translate(-45.655437, -70.619654) " x="20.7016931" y="69.6247164" width="49.9074882" height="1.98987607"></rect>
                    <rect id="Rectangle" fill="#E6E6E6" x="70.6091814" y="80.5061965" width="8.97538837" height="1.98987607"></rect>
                    <rect id="Rectangle" fill="#F5F5F5" transform="translate(45.655437, 81.501135) rotate(180.000000) translate(-45.655437, -81.501135) " x="20.7016931" y="80.5061965" width="49.9074882" height="1.98987607"></rect>
                    <rect id="Rectangle" fill="#E6E6E6" transform="translate(77.177518, 91.417350) rotate(180.000000) translate(-77.177518, -91.417350) " x="76.3484029" y="68.539012" width="1.65823006" height="45.7566766"></rect>
                    <rect id="Rectangle" fill="#F5F5F5" transform="translate(69.780066, 91.417350) rotate(180.000000) translate(-69.780066, -91.417350) " x="68.9509513" y="68.539012" width="1.65823006" height="45.7566766"></rect>
                    <rect id="Rectangle" fill="#F5F5F5" transform="translate(21.527317, 91.417350) rotate(180.000000) translate(-21.527317, -91.417350) " x="20.6982021" y="68.539012" width="1.65823006" height="45.7566766"></rect>
                </g>
                <g id="freepik--Calendar--inject-34" transform="translate(44.247213, 11.499083)">
                    <polygon id="Rectangle" fill="#15AFC5" transform="translate(4.272479, 33.954201) rotate(-83.130000) translate(-4.272479, -33.954201) " points="1.33653911 33.7796508 7.20841902 33.7796508 7.20841902 34.1287518 1.33653911 34.1287518"></polygon>
                    <polygon id="Rectangle" fill="#15AFC5" transform="translate(3.532060, 40.098592) rotate(-83.120000) translate(-3.532060, -40.098592) " points="2.43762788 39.9240412 4.62649156 39.9240412 4.62649156 40.2731423 2.43762788 40.2731423"></polygon>
                    <path d="M69.1477951,90.4000269 L3.70181852,82.5033608 C1.39880903,82.2178818 -0.241720767,80.1266741 0.0292753224,77.8219155 L8.37628178,8.6615036 C8.66176082,6.35849411 10.7529685,4.71796431 13.0577271,4.9889604 L78.5037037,12.8891175 C80.8077296,13.1727975 82.4492323,15.2652453 82.1762469,17.5705628 L73.8292404,86.7274837 C73.5455605,89.0315096 71.4531126,90.6730123 69.1477951,90.4000269 L69.1477951,90.4000269 Z" id="Path" fill="#15AFC5"></path>
                    <circle id="Oval" fill="#000000" opacity="0.3" transform="translate(19.024976, 11.850160) rotate(-50.320000) translate(-19.024976, -11.850160) " cx="19.0249759" cy="11.8501596" r="4.58369698"></circle>
                    <circle id="Oval" fill="#000000" opacity="0.3" cx="71.078324" cy="18.1326155" r="4.58369698"></circle>
                    <path d="M10.2539286,19.5731947 L67.419228,19.5731947 C68.9192368,19.5731947 70.1352343,20.7891922 70.1352343,22.289201 L70.1352343,88.2099551 C70.1352343,89.7099639 68.9192368,90.9259614 67.419228,90.9259614 L10.2539286,90.9259614 L10.2539286,19.5731947 Z" id="Path" fill="#FFFFFF" transform="translate(40.194581, 55.249578) rotate(96.880000) translate(-40.194581, -55.249578) "></path>
                    <path d="M18.9051699,12.8472254 L18.9051699,12.8472254 C17.2488342,12.6435687 16.0689236,11.1390267 16.2659658,9.4818911 L17.0898444,2.64998327 C17.3005265,0.998895822 18.802207,-0.174097367 20.4551786,0.0212522486 L20.4551786,0.0212522486 C22.1104972,0.226708956 23.2894342,1.73000966 23.0943827,3.38658651 L22.2705042,10.2150033 C22.0597774,11.8664877 20.5587878,13.0404983 18.9051699,12.8472254 Z" id="Path" fill="#263238"></path>
                    <path d="M70.9561386,19.1275535 L70.9561386,19.1275535 C69.3008201,18.9220968 68.121883,17.4187961 68.3169346,15.7622193 L69.1408131,8.93380243 C69.3462698,7.27848387 70.8495705,6.09954681 72.5061474,6.29459838 L72.5061474,6.29459838 C74.1624831,6.49825503 75.3423936,8.00279706 75.1453514,9.65993265 L74.3214729,16.4883495 C74.1160162,18.143668 72.6127155,19.3226051 70.9561386,19.1275535 L70.9561386,19.1275535 Z" id="Path" fill="#263238"></path>
                </g>
            </g>
        </g>
    </g>
</svg>