<svg xmlns="http://www.w3.org/2000/svg" width="10" height="12" viewBox="0 0 10 12">
    <g fill="none" fill-rule="evenodd">
        <g fill="#667074">
            <g>
                <g>
                    <path d="M10 5c0-2.761-2.239-5-5-5S0 2.239 0 5c0 1.512.76 2.946 1.694 4.112 1.346 1.683 3.029 2.804 3.029 2.804.168.112.386.112.554 0 0 0 1.683-1.121 3.029-2.804C9.24 7.946 10 6.512 10 5zM9 5c0 1.288-.68 2.494-1.474 3.488C6.6 9.644 5.503 10.515 5 10.886c-.503-.371-1.6-1.242-2.526-2.398C1.68 7.494 1 6.288 1 5c0-2.209 1.791-4 4-4s4 1.791 4 4z" transform="translate(-610 -384) translate(290 287) translate(320 97)"/>
                    <path d="M5 7c1.104 0 2-.896 2-2s-.896-2-2-2-2 .896-2 2 .896 2 2 2zm0-1c-.552 0-1-.448-1-1s.448-1 1-1 1 .448 1 1-.448 1-1 1z" transform="translate(-610 -384) translate(290 287) translate(320 97)"/>
                </g>
            </g>
        </g>
    </g>
</svg>
