<svg id="notes-image-active-1" width="20" height="20" viewBox="0 0 20 20" xmlns="http://www.w3.org/2000/svg">
    <path d="M2.482 17.5V3.333c0-.92.739-1.666 1.655-1.666h11.58a1.66 1.66 0 0 1 1.654 1.666V17.5a.827.827 0 0 1-1.197.745l-1.275-.642-1.294.642a.822.822 0 0 1-.74 0l-1.282-.646-1.287.646a.822.822 0 0 1-.74 0L8.276 17.6l-1.286.645a.822.822 0 0 1-.74 0L4.966 17.6l-1.287.646a.827.827 0 0 1-1.197-.745zM15.716 3.333H4.136V16.15l.457-.229a.822.822 0 0 1 .74 0l1.293.65 1.276-.65a.822.822 0 0 1 .74 0l1.284.649 1.285-.649a.822.822 0 0 1 .74 0l1.297.653 1.272-.653a.822.822 0 0 1 .74 0l.461.233-.005-12.82zM9.926 12.5c0-.46.368-.833.828-.833h2.481c.457 0 .828.37.828.833 0 .46-.368.833-.828.833h-2.481a.828.828 0 0 1-.828-.833zM5.79 9.167a.83.83 0 0 1 .824-.834h6.625c.455 0 .823.37.823.834a.83.83 0 0 1-.823.833H6.614a.826.826 0 0 1-.824-.833zm0-3.334A.83.83 0 0 1 6.614 5h6.625c.455 0 .823.37.823.833a.83.83 0 0 1-.823.834H6.614a.826.826 0 0 1-.824-.834z" fill="currentColor" fill-rule="evenodd"/>
</svg>
