<?xml version="1.0" encoding="UTF-8"?>
<svg width="16px" height="16px" viewBox="0 0 16 16" version="1.1" xmlns="http://www.w3.org/2000/svg" xmlns:xlink="http://www.w3.org/1999/xlink">
    <title>D7AF46F2-6C40-4701-96E6-CCE6667BB0C2</title>
    <g id="Page-1" stroke="none" stroke-width="1" fill="none" fill-rule="evenodd">
        <g id="Events" transform="translate(-917.000000, -357.000000)" fill="#667074">
            <g id="icons/Rotate" transform="translate(917.000000, 357.000000)">
                <path d="M10.6695101,6.66666667 C10.3006501,6.66666667 10,6.36818983 10,6 C10,5.62924321 10.2997499,5.33333333 10.6695101,5.33333333 L11.7903017,5.33333333 C10.7726656,3.97791769 9.55560054,3.33333333 8,3.33333333 C5.42267117,3.33333333 3.33333333,5.42267117 3.33333333,8 C3.33333333,10.5773288 5.42267117,12.6666667 8,12.6666667 C10.3602138,12.6666667 12.3414327,10.9044895 12.6305876,8.58369278 C12.6761095,8.21832788 13.0091991,7.95904389 13.374564,8.00456578 C13.7399289,8.05008767 13.9992129,8.38317722 13.953691,8.74854213 C13.5816219,11.734819 11.0348749,14 8,14 C4.6862915,14 2,11.3137085 2,8 C2,4.6862915 4.6862915,2 8,2 C9.90732716,2 11.4370024,2.77400567 12.6666667,4.29106949 L12.6666667,3.33617673 C12.6666667,2.96731679 12.9651435,2.66666667 13.3333333,2.66666667 C13.7040901,2.66666667 14,2.96641653 14,3.33617673 C14,3.33617673 13.9999995,5.99810473 14,6 C14,6.1849038 13.9254457,6.35119156 13.803807,6.47116802 C13.6832383,6.59188991 13.5169552,6.66666667 13.3304899,6.66666667 L10.6695101,6.66666667 Z" id="Shape"></path>
            </g>
        </g>
    </g>
</svg>