<svg id="signs-image-active-1" width="20" height="20" viewBox="0 0 20 20" xmlns="http://www.w3.org/2000/svg">
    <path d="M9.112 3.333a.83.83 0 0 1 .827.834.83.83 0 0 1-.827.833H3.309v11.667l11.58-.003v-5.83c0-.46.371-.833.828-.833a.83.83 0 0 1 .827.833v5.83a1.66 1.66 0 0 1-1.655 1.67H3.309a1.66 1.66 0 0 1-1.655-1.668V5c0-.922.742-1.668 1.659-1.668zm7.32-1.066 1.171 1.181c.646.65.646 1.705-.002 2.357l-8.188 8.249-3.079.778c-.887.224-1.425-.321-1.203-1.212l.773-3.102L14.09 2.27a1.648 1.648 0 0 1 2.34-.003zm-8.48 8.546-.554.558-.388 1.569 1.55-.384.56-.565-1.169-1.178zm5.555-5.6L9.12 9.636l1.17 1.178 4.385-4.418-1.17-1.181z" fill="currentColor" fill-rule="evenodd"/>
</svg>
