<svg id="status-processing" width="14" height="14" viewBox="0 0 14 14" fill="none" xmlns="http://www.w3.org/2000/svg">
<path fill-rule="evenodd" clip-rule="evenodd" d="M0.333344 6.99967C0.333344 10.6816 3.31811 13.6663 7.00001 13.6663C10.6819 13.6663 13.6667 10.6816 13.6667 6.99967C13.6667 3.31778 10.6819 0.333008 7.00001 0.333008C3.31811 0.333008 0.333344 3.31778 0.333344 6.99967ZM7.33334 3.99967C6.96259 3.99967 6.66668 4.29809 6.66668 4.66621V6.66634H5.99938C5.62891 6.66634 5.33334 6.96482 5.33334 7.33301C5.33334 7.70376 5.63154 7.99967 5.99938 7.99967H7.33398C7.70444 7.99967 8.00001 7.7012 8.00001 7.33301V4.66621C8.00001 4.29549 7.70153 3.99967 7.33334 3.99967Z" fill="currentColor"/>
</svg>
