<svg id="status-uncollectible" width="16" height="16" viewBox="0 0 16 16" fill="none" xmlns="http://www.w3.org/2000/svg">
<path fill-rule="evenodd" clip-rule="evenodd" d="M8.00001 14.6663C4.31811 14.6663 1.33334 11.6816 1.33334 7.99967C1.33334 4.31778 4.31811 1.33301 8.00001 1.33301C11.6819 1.33301 14.6667 4.31778 14.6667 7.99967C14.6667 11.6816 11.6819 14.6663 8.00001 14.6663ZM7.33334 4.66634C7.33334 4.29815 7.63182 3.99967 8.00001 3.99967C8.3682 3.99967 8.66668 4.29815 8.66668 4.66634V9.33301C8.66668 9.7012 8.3682 9.99967 8.00001 9.99967C7.63182 9.99967 7.33334 9.7012 7.33334 9.33301V4.66634ZM7.33334 11.333C7.33334 11.7012 7.63182 11.9997 8.00001 11.9997C8.3682 11.9997 8.66668 11.7012 8.66668 11.333C8.66668 10.9648 8.3682 10.6663 8.00001 10.6663C7.63182 10.6663 7.33334 10.9648 7.33334 11.333Z" fill="currentColor"/>
</svg>
