<svg id="status-open" width="16" height="16" viewBox="0 0 16 16" fill="none" xmlns="http://www.w3.org/2000/svg">
<path fill-rule="evenodd" clip-rule="evenodd" d="M1.33334 7.99967C1.33334 11.6816 4.31811 14.6663 8.00001 14.6663C11.6819 14.6663 14.6667 11.6816 14.6667 7.99967C14.6667 4.31778 11.6819 1.33301 8.00001 1.33301C4.31811 1.33301 1.33334 4.31778 1.33334 7.99967ZM11.3325 7.99729L11.3309 7.97541L11.3267 7.94L11.3116 7.86877L11.2902 7.80492L11.2578 7.73661L11.2144 7.66919C11.1968 7.64554 11.1773 7.62288 11.1558 7.60143L8.73159 5.17719L8.67449 5.12677C8.43674 4.9419 8.09297 4.95871 7.87449 5.17719L7.82407 5.23428C7.63921 5.47203 7.65602 5.81581 7.87449 6.03428L9.26365 7.42392H5.27274L5.20206 7.42799C4.90064 7.463 4.66668 7.71917 4.66668 8.02998C4.66668 8.3647 4.93802 8.63604 5.27274 8.63604H9.26365L7.87449 10.0257L7.82407 10.0828C7.63921 10.3205 7.65602 10.6643 7.87449 10.8828C8.11117 11.1195 8.49491 11.1195 8.73159 10.8828L11.1558 8.45853L11.2002 8.40904L11.2449 8.34556L11.2766 8.28648L11.3032 8.21915L11.3211 8.15163L11.3317 8.07558L11.3325 7.99729Z" fill="currentColor"/>
</svg>
