<svg id="status-void" width="14" height="14" viewBox="0 0 14 14" fill="none" xmlns="http://www.w3.org/2000/svg">
<path fill-rule="evenodd" clip-rule="evenodd" d="M7.00001 6.05687L8.65201 4.40486C8.91163 4.14524 9.33239 4.1466 9.59274 4.40695C9.8549 4.66911 9.85402 5.08848 9.59482 5.34767L7.94282 6.99967L9.59482 8.65167C9.85402 8.91087 9.8549 9.33023 9.59274 9.5924C9.33239 9.85275 8.91163 9.85411 8.65201 9.59448L7.00001 7.94248L5.34801 9.59448C5.08839 9.85411 4.66763 9.85275 4.40729 9.5924C4.14512 9.33023 4.146 8.91087 4.4052 8.65167L6.0572 6.99967L4.4052 5.34767C4.146 5.08848 4.14512 4.66911 4.40729 4.40695C4.66763 4.1466 5.08839 4.14524 5.34801 4.40486L7.00001 6.05687ZM7.00001 13.6663C3.31811 13.6663 0.333344 10.6816 0.333344 6.99967C0.333344 3.31778 3.31811 0.333008 7.00001 0.333008C10.6819 0.333008 13.6667 3.31778 13.6667 6.99967C13.6667 10.6816 10.6819 13.6663 7.00001 13.6663Z" fill="currentColor"/>
</svg>
