<svg id="status-paid" width="14" height="14" viewBox="0 0 14 14" fill="none" xmlns="http://www.w3.org/2000/svg">
<path fill-rule="evenodd" clip-rule="evenodd" d="M0.333344 6.99967C0.333344 10.6816 3.31811 13.6663 7.00001 13.6663C10.6819 13.6663 13.6667 10.6816 13.6667 6.99967C13.6667 3.31778 10.6819 0.333008 7.00001 0.333008C3.31811 0.333008 0.333344 3.31778 0.333344 6.99967ZM5.52861 9.47108L3.52861 7.47108C3.26826 7.21073 3.26826 6.78862 3.52861 6.52827C3.78896 6.26792 4.21106 6.26792 4.47141 6.52827L6.00001 8.06625L9.19527 4.8616C9.45562 4.60125 9.87773 4.60125 10.1381 4.8616C10.3984 5.12195 10.3984 5.54406 10.1381 5.80441L6.47141 9.47108C6.21106 9.73143 5.78895 9.73143 5.52861 9.47108Z" fill="currentColor"/>
</svg>
