<svg width="18" height="21" viewBox="0 0 18 21" fill="none" xmlns="http://www.w3.org/2000/svg">
<path fill-rule="evenodd" clip-rule="evenodd" d="M13 0C13.5523 0 14 0.443353 14 0.999051L15.9991 1C17.1045 1 18 1.89295 18 2.99985V19.0001C18 20.1055 17.1068 21 15.9991 21H2.00087C0.89553 21 0 20.1071 0 19.0001V2.99985C0 1.89447 0.893236 1 2.00087 1H4C4 0.44729 4.44386 0 5 0C5.55228 0 6 0.443353 6 0.999051L8 1C8 0.44729 8.44386 0 9 0C9.55229 0 10 0.443353 10 0.999051L12 1C12 0.44729 12.4439 0 13 0ZM10 2.99946C10 3.55271 9.55614 4 9 4C8.44771 4 8 3.55665 8 3.00095C7.31099 2.9993 6.63517 2.99927 6 2.99926C6 3.55271 5.55614 4 5 4C4.44772 4 4 3.55665 4 3.00095C2.79233 2.99934 2 2.99985 2 2.99985L2.00087 19L16 19.0001L15.9991 3C15.9991 3 15.2072 2.99991 14 2.99979C14 3.55271 13.5561 4 13 4C12.4477 4 12 3.55665 12 3.00095C11.3648 2.99956 10.689 2.99951 10 2.99946ZM9 8.5C9 7.94772 9.45098 7.5 10.0043 7.5H13.9957C14.5504 7.5 15 7.94386 15 8.5C15 9.05229 14.549 9.5 13.9957 9.5H10.0043C9.44963 9.5 9 9.05614 9 8.5ZM9 14C9 13.4477 9.45098 13 10.0043 13H13.9957C14.5504 13 15 13.4439 15 14C15 14.5523 14.549 15 13.9957 15H10.0043C9.44963 15 9 14.5561 9 14ZM4.29289 9.20711L3.29289 8.20711C2.90237 7.81658 2.90237 7.18342 3.29289 6.79289C3.68342 6.40237 4.31658 6.40237 4.70711 6.79289L5.00021 7.086L6.29289 5.79289C6.68342 5.40237 7.31658 5.40237 7.70711 5.79289C8.09763 6.18342 8.09763 6.81658 7.70711 7.20711L5.70711 9.20711C5.31658 9.59763 4.68342 9.59763 4.29289 9.20711ZM4.29289 14.7071L3.29289 13.7071C2.90237 13.3166 2.90237 12.6834 3.29289 12.2929C3.68342 11.9024 4.31658 11.9024 4.70711 12.2929L5.00194 12.5877L6.29289 11.2929C6.68342 10.9024 7.31658 10.9024 7.70711 11.2929C8.09763 11.6834 8.09763 12.3166 7.70711 12.7071L5.70711 14.7071C5.31658 15.0976 4.68342 15.0976 4.29289 14.7071Z" fill="white"/>
</svg>
