<svg id="tasks-icon" width="18" height="18" viewBox="0 0 18 18" fill="none" xmlns="http://www.w3.org/2000/svg">
<path fill-rule="evenodd" clip-rule="evenodd" d="M15.6667 0.666504C16.5876 0.666504 17.3333 1.41082 17.3333 2.33305V15.6666C17.3333 16.5875 16.589 17.3332 15.6667 17.3332H2.33317C1.41233 17.3332 0.666626 16.5889 0.666626 15.6666V2.33305C0.666626 1.41221 1.41094 0.666504 2.33317 0.666504H15.6667ZM2.33329 2.33305L2.33317 15.6665L15.6666 15.6666L15.6667 2.33317L2.33329 2.33305ZM11.744 6.32725C12.0695 6.00181 12.5971 6.00181 12.9225 6.32725C13.248 6.65269 13.248 7.18032 12.9225 7.50576L8.33922 12.0891C8.01378 12.4145 7.48614 12.4145 7.1607 12.0891L4.6607 9.58909C4.33527 9.26366 4.33527 8.73602 4.6607 8.41058C4.98614 8.08515 5.51378 8.08515 5.83922 8.41058L7.74996 10.3331L11.744 6.32725Z" fill="currentColor"/>
</svg>
