<svg width="14" height="14" viewBox="0 0 14 14" fill="none" xmlns="http://www.w3.org/2000/svg">
<path fill-rule="evenodd" clip-rule="evenodd" d="M0.333344 12.9085C0.333344 12.5403 0.630523 12.2419 0.999107 12.2419H13.0009C13.3686 12.2419 13.6667 12.5378 13.6667 12.9085C13.6667 13.2767 13.3695 13.5752 13.0009 13.5752H0.999107C0.631416 13.5752 0.333344 13.2793 0.333344 12.9085ZM12.2423 0.722366L13.1871 1.66714C13.7073 2.1873 13.7073 3.03065 13.1851 3.55278L6.58648 10.1514L4.10475 10.7742C3.39 10.9535 2.95655 10.5172 3.13532 9.80474L3.75805 7.32301L10.3567 0.724353C10.878 0.203099 11.724 0.203984 12.2423 0.722366ZM6.35078 8.50152L5.40833 7.55907L4.96212 8.0052L4.64923 9.26026L5.89884 8.95346L6.35078 8.50152ZM10.8281 4.02418L9.88533 3.07939L6.35118 6.61631L7.29358 7.55872L10.8281 4.02418Z" fill="#4B5153"/>
</svg>
