<svg width="16" height="16" viewBox="0 0 16 16" fill="none" xmlns="http://www.w3.org/2000/svg">
<path fill-rule="evenodd" clip-rule="evenodd" d="M4.66666 13.3336C4.66666 13.3342 11.3344 13.3333 11.3344 13.3333C11.3331 13.3333 11.3332 6.80199 11.3333 4.66667L4.66666 4.66667V13.3336ZM12.6667 13.3336C12.6667 14.0698 12.0686 14.6667 11.3344 14.6667H4.6656C3.92981 14.6667 3.33332 14.0711 3.33332 13.3336V4.66667C2.96508 4.66636 2.66666 4.37056 2.66666 4C2.66666 3.63181 2.96308 3.33333 3.3339 3.33333H6.66666C6.66666 2.59695 7.26361 2 7.99999 2C8.73637 2 9.33332 2.59695 9.33332 3.33333H12.6661C13.0346 3.33333 13.3333 3.62924 13.3333 4C13.3333 4.368 13.0372 4.66635 12.6667 4.66667V13.3336ZM8.66666 6.66503C8.66666 6.29774 8.96257 6 9.33332 6C9.70151 6 9.99999 6.29754 9.99999 6.66503V11.335C9.99999 11.7023 9.70408 12 9.33332 12C8.96513 12 8.66666 11.7025 8.66666 11.335V6.66503ZM5.99999 6.66503C5.99999 6.29774 6.2959 6 6.66666 6C7.03485 6 7.33332 6.29754 7.33332 6.66503V11.335C7.33332 11.7023 7.03741 12 6.66666 12C6.29847 12 5.99999 11.7025 5.99999 11.335V6.66503Z" fill="#FC2125"/>
</svg>
