<svg xmlns="http://www.w3.org/2000/svg" width="36" height="36" viewBox="0 0 36 36">
    <defs>
        <filter id="nsg2afwx0a">
            <feColorMatrix in="SourceGraphic" values="0 0 0 0 0.607843 0 0 0 0 0.631373 0 0 0 0 0.639216 0 0 0 1.000000 0"/>
        </filter>
    </defs>
    <g fill="none" fill-rule="evenodd">
        <g>
            <g>
                <g filter="url(#nsg2afwx0a)" transform="translate(-1379 -183) translate(1113 159) translate(0 24)">
                    <g>
                        <path fill="#000" fill-rule="nonzero" d="M19.5 9.75c1.198 0 2.178.937 2.246 2.118l.004.132v.75h3c.414 0 .75.336.75.75 0 .385-.29.702-.663.745l-.087.005H24V24c0 1.198-.937 2.178-2.118 2.246l-.132.004h-7.5c-1.198 0-2.178-.937-2.246-2.118L12 24v-9.75h-.75c-.414 0-.75-.336-.75-.75 0-.385.29-.702.663-.745l.087-.005h3V12c0-1.198.937-2.178 2.118-2.246l.132-.004h3zm3 4.5h-9V24c0 .385.29.702.663.745l.087.005h7.5c.385 0 .702-.29.745-.663L22.5 24v-9.75zm-6 2.25c.385 0 .702.29.745.663l.005.087v4.5c0 .414-.336.75-.75.75-.385 0-.702-.29-.745-.663l-.005-.087v-4.5c0-.414.336-.75.75-.75zm3 0c.385 0 .702.29.745.663l.005.087v4.5c0 .414-.336.75-.75.75-.385 0-.702-.29-.745-.663l-.005-.087v-4.5c0-.414.336-.75.75-.75zm0-5.25h-3c-.385 0-.702.29-.745.663L15.75 12v.75h4.5V12c0-.385-.29-.702-.663-.745l-.087-.005z" transform="translate(266)"/>
                        <path d="M0 0H36V36H0z" transform="translate(266)"/>
                    </g>
                </g>
            </g>
        </g>
    </g>
</svg>
