<svg xmlns="http://www.w3.org/2000/svg" width="9" height="10" viewBox="0 0 9 10">
    <g fill="none" fill-rule="evenodd">
        <g fill="#667074">
            <g>
                <g>
                    <path d="M9 9.5v-1C9 7.119 7.881 6 6.5 6h-4C1.119 6 0 7.119 0 8.5v1c0 .276.224.5.5.5s.5-.224.5-.5v-1C1 7.672 1.672 7 2.5 7h4C7.328 7 8 7.672 8 8.5v1c0 .276.224.5.5.5s.5-.224.5-.5zM4.5 5C5.88 5 7 3.88 7 2.5S5.88 0 4.5 0 2 1.12 2 2.5 3.12 5 4.5 5zm0-1C3.672 4 3 3.328 3 2.5S3.672 1 4.5 1 6 1.672 6 2.5 5.328 4 4.5 4z" transform="translate(-610 -405) translate(290 287) translate(320 118)"/>
                </g>
            </g>
        </g>
    </g>
</svg>
