<svg id="videos-image-active-1" width="18" height="18" viewBox="0 0 18 18" xmlns="http://www.w3.org/2000/svg">
    <path d="M14.32.75a2.933 2.933 0 0 1 2.93 2.93v10.64a2.933 2.933 0 0 1-2.93 2.93H3.68a2.933 2.933 0 0 1-2.93-2.93V3.68A2.933 2.933 0 0 1 3.68.75zM4.5 13.5H2.25v.82c0 .74.569 1.354 1.293 1.423l.137.007h.82V13.5zM12 9.75H6v6h6v-6zm3.75 3.75H13.5v2.25h.82c.741 0 1.354-.57 1.423-1.293l.007-.137v-.82zm0-3.75H13.5V12h2.25V9.75zm-11.25 0H2.25V12H4.5V9.75zM4.5 6H2.25v2.25H4.5V6zM12 2.25H6v6h6v-6zM15.75 6H13.5v2.25h2.25V6zm-1.43-3.75h-.82V4.5h2.25v-.82c0-.74-.569-1.354-1.293-1.423l-.137-.007zm-9.82 0h-.82c-.788 0-1.43.643-1.43 1.43v.82H4.5V2.25z" fill="currentColor" fill-rule="nonzero"/>
</svg>
