<svg id="video-converting" width="48" height="48" viewBox="0 0 48 48" fill="none" xmlns="http://www.w3.org/2000/svg">
  <path fill-rule="evenodd" clip-rule="evenodd" d="M17.9959 9.6691C12.473 9.6691 8 14.1452 8 19.6704V27.6697C8 28.7818 7.10457 29.6691 6 29.6691C4.88773 29.6691 4 28.774 4 27.6697V19.6704C4 11.9366 10.2633 5.6691 17.9959 5.6691H27.3284L25.0771 3.41777C24.2927 2.63339 24.2846 1.3698 25.0711 0.583311C25.8521 -0.197738 27.1231 -0.193128 27.9055 0.589342L33.5503 6.23413C33.9459 6.62969 34.14 7.14105 34.1397 7.65291C34.1432 8.16545 33.9486 8.67635 33.5564 9.06859C33.5523 9.07261 27.9055 14.7194 27.9055 14.7194C27.1211 15.5038 25.8576 15.5119 25.0711 14.7254C24.29 13.9444 24.2946 12.6735 25.0771 11.891L27.299 9.6691H17.9959Z" fill="white"/>
  <path fill-rule="evenodd" clip-rule="evenodd" d="M30.0032 38C35.526 38 39.9991 33.5239 39.9991 27.9987V19.9994C39.9991 18.8873 40.8945 18 41.9991 18C43.1114 18 43.9991 18.8951 43.9991 19.9994V27.9987C43.9991 35.7324 37.7358 42 30.0032 42H20.6707L22.922 44.2513C23.7064 45.0357 23.7145 46.2993 22.928 47.0858C22.147 47.8668 20.876 47.8622 20.0936 47.0798L14.4488 41.435C14.0532 41.0394 13.8591 40.528 13.8594 40.0162C13.8559 39.5037 14.0505 38.9927 14.4427 38.6005C14.4468 38.5965 20.0936 32.9497 20.0936 32.9497C20.8779 32.1653 22.1415 32.1572 22.928 32.9437C23.7091 33.7247 23.7045 34.9956 22.922 35.7781L20.7001 38H30.0032Z" fill="white"/>
  <path d="M20.7721 18.2215C19.8148 17.6884 19.0255 18.1498 19.0228 19.2596L19 28.6632C18.9973 29.7712 19.7783 30.2338 20.7443 29.6923L29.2753 24.9109C30.2352 24.3729 30.2435 23.4956 29.2801 22.9591L20.7721 18.2215Z" fill="white"/>
</svg>
