<svg xmlns="http://www.w3.org/2000/svg" width="36" height="36" viewBox="0 0 36 36">
    <defs>
        <filter id="qz7jprnfqa">
            <feColorMatrix in="SourceGraphic" values="0 0 0 0 0.400000 0 0 0 0 0.439200 0 0 0 0 0.454900 0 0 0 1.000000 0"/>
        </filter>
    </defs>
    <g fill="none" fill-rule="evenodd">
        <g>
            <g filter="url(#qz7jprnfqa)" transform="translate(-444 -183) translate(444 183)">
                <path fill="#000" fill-rule="nonzero" d="M16.875 10.5c3.52 0 6.375 2.854 6.375 6.375 0 1.49-.511 2.86-1.368 3.946l3.398 3.399c.293.293.293.767 0 1.06-.27.27-.695.291-.99.063l-.07-.063-3.399-3.398c-1.085.857-2.456 1.368-3.946 1.368-3.52 0-6.375-2.854-6.375-6.375 0-3.52 2.854-6.375 6.375-6.375zm0 1.5C14.183 12 12 14.183 12 16.875s2.183 4.875 4.875 4.875c1.336 0 2.547-.538 3.428-1.408.004-.009.01-.016.017-.022l.02-.016c.872-.881 1.41-2.092 1.41-3.429 0-2.692-2.183-4.875-4.875-4.875zm0 1.875c.414 0 .75.336.75.75v1.5h1.5c.414 0 .75.336.75.75s-.336.75-.75.75h-1.5v1.5c0 .414-.336.75-.75.75s-.75-.336-.75-.75v-1.5h-1.5c-.414 0-.75-.336-.75-.75s.336-.75.75-.75h1.5v-1.5c0-.414.336-.75.75-.75z"/>
                <path d="M0 0H36V36H0z"/>
            </g>
        </g>
    </g>
</svg>
