<svg width="24" height="24" viewBox="0 0 24 24" fill="none" xmlns="http://www.w3.org/2000/svg">
<path fill-rule="evenodd" clip-rule="evenodd" d="M0 12C0 18.6274 5.37258 24 12 24C18.6274 24 24 18.6274 24 12C24 5.37258 18.6274 0 12 0C5.37258 0 0 5.37258 0 12ZM9.35186 16.4483L5.75186 12.8483C5.28323 12.3797 5.28323 11.6199 5.75186 11.1513C6.22049 10.6826 6.98029 10.6826 7.44892 11.1513L10.2004 13.9196L15.9519 8.15128C16.4205 7.68265 17.1803 7.68265 17.6489 8.15128C18.1175 8.61991 18.1175 9.3797 17.6489 9.84833L11.0489 16.4483C10.5803 16.917 9.82049 16.917 9.35186 16.4483Z" fill="#15AFC5"/>
</svg>
